<svg xmlns="http://www.w3.org/2000/svg" width="1em" height="1em" viewBox="0 0 512.000000 512.000000">
  <g transform="translate(0.000000,512.000000) scale(0.100000,-0.100000)" fill="#667686" stroke="none">
    <path
      d="M2180 5095 c-56 -28 -133 -110 -155 -161 -9 -22 -31 -126 -50 -233
-18 -106 -37 -197 -42 -201 -4 -4 -37 -17 -73 -30 -36 -13 -108 -43 -161 -67
l-96 -45 -164 117 c-90 64 -180 124 -199 132 -21 10 -65 16 -110 17 -128 1
-167 -24 -406 -266 -182 -183 -203 -209 -223 -263 -18 -46 -22 -76 -19 -131 4
-88 21 -122 161 -317 l105 -149 -37 -81 c-21 -45 -51 -122 -67 -170 -22 -66
-34 -89 -49 -92 -11 -3 -100 -18 -197 -35 -201 -34 -250 -53 -315 -123 -84
-91 -83 -85 -83 -447 l0 -321 25 -50 c33 -64 88 -119 148 -147 28 -13 127 -36
244 -57 109 -20 200 -39 204 -43 3 -4 16 -36 28 -72 13 -36 43 -109 67 -162
l44 -98 -114 -159 c-130 -182 -151 -228 -150 -321 1 -119 25 -155 262 -391
185 -184 213 -208 265 -227 68 -26 156 -29 217 -7 24 8 116 66 204 128 89 62
166 116 172 120 7 4 54 -13 105 -37 52 -24 124 -53 161 -65 57 -19 67 -26 72
-49 3 -15 17 -97 31 -182 14 -85 33 -176 41 -203 20 -60 101 -150 165 -183 48
-24 49 -24 369 -24 319 0 321 0 368 24 57 29 135 109 157 162 8 21 29 115 45
208 17 94 33 183 36 197 4 23 17 31 97 59 51 18 123 48 161 67 38 19 76 33 85
30 9 -2 81 -50 161 -107 190 -135 208 -144 300 -148 59 -3 88 1 135 18 55 21
78 41 266 229 244 244 254 260 254 396 0 109 -4 119 -146 318 -56 78 -103 147
-106 154 -3 6 13 51 35 100 22 48 52 123 67 166 21 58 33 78 49 82 11 3 101
18 198 35 199 33 248 52 314 122 85 88 84 85 84 449 0 312 -1 324 -22 368 -29
59 -91 121 -150 149 -28 13 -127 36 -244 57 -108 19 -197 36 -199 37 -1 2 -12
32 -24 68 -13 36 -43 111 -68 168 l-45 102 102 143 c123 169 156 228 165 295
9 65 -15 159 -54 215 -16 23 -114 126 -218 229 -220 218 -251 238 -373 238
-92 0 -128 -16 -259 -109 -192 -136 -214 -151 -228 -151 -7 0 -48 17 -91 39
-42 21 -115 51 -162 66 -47 15 -86 29 -88 30 -2 1 -16 83 -33 181 -16 99 -37
200 -45 227 -20 60 -101 150 -165 183 -48 24 -48 24 -371 24 -319 -1 -324 -1
-368 -25z m615 -297 c3 -13 21 -119 40 -237 20 -117 42 -226 50 -241 22 -43
70 -77 132 -95 116 -32 236 -79 349 -136 149 -76 175 -77 269 -13 37 25 129
91 203 145 75 54 143 99 152 99 21 0 330 -311 330 -332 0 -9 -48 -83 -106
-164 -159 -221 -184 -261 -184 -304 0 -25 21 -78 66 -169 36 -73 84 -188 105
-254 46 -138 70 -180 117 -203 23 -11 449 -91 500 -94 1 0 2 -108 2 -239 l0
-239 -27 -6 c-16 -3 -124 -22 -242 -41 -120 -20 -227 -43 -242 -52 -44 -26
-63 -60 -103 -185 -21 -64 -69 -180 -107 -258 -73 -150 -81 -187 -53 -241 8
-17 74 -112 145 -212 71 -100 129 -188 129 -197 0 -25 -319 -333 -339 -327 -9
2 -95 60 -192 129 -96 69 -190 133 -207 142 -55 28 -91 20 -226 -48 -70 -35
-183 -83 -253 -105 -69 -23 -139 -49 -155 -59 -53 -31 -65 -65 -103 -292 -19
-118 -38 -227 -41 -243 l-6 -27 -238 0 -238 0 -6 27 c-3 16 -22 124 -41 242
-36 221 -51 263 -98 293 -12 8 -80 34 -152 57 -71 23 -183 69 -248 102 -181
90 -176 92 -462 -115 -82 -60 -158 -111 -168 -114 -14 -4 -60 37 -178 154 -87
87 -159 167 -159 176 0 10 59 99 131 199 134 186 159 229 159 275 0 14 -29 84
-65 155 -36 71 -86 189 -110 262 -25 72 -53 143 -63 156 -32 43 -82 59 -302
96 -118 20 -225 39 -237 42 l-23 5 0 239 c0 131 2 239 5 239 42 0 487 86 508
98 41 24 62 65 107 203 22 68 68 179 103 248 84 171 84 184 -8 317 -38 54
-104 148 -147 207 -55 75 -77 114 -73 126 7 24 315 321 332 321 7 0 99 -60
203 -134 194 -137 242 -163 286 -152 14 4 89 38 167 76 78 38 193 85 255 105
62 20 126 48 142 61 41 35 54 81 96 332 l38 222 238 0 238 0 5 -22z"/>
    <path
      d="M2460 3670 c-396 -39 -731 -273 -906 -631 -71 -145 -105 -303 -105
-482 0 -191 40 -351 126 -514 211 -397 631 -627 1082 -591 499 40 922 430
1004 925 14 88 14 279 0 367 -68 407 -371 754 -769 880 -133 42 -298 59 -432
46z m335 -340 c152 -48 295 -144 391 -264 316 -395 187 -1000 -261 -1221 -119
-58 -186 -75 -326 -82 -237 -12 -432 61 -597 220 -149 145 -230 326 -239 538
-12 262 84 488 279 655 92 79 218 141 343 170 93 21 321 13 410 -16z"/>
  </g>
</svg>
