<svg xmlns="http://www.w3.org/2000/svg" width="1em" height="1em" viewBox="0 0 512.000000 512.000000">
  <g transform="translate(0.000000,512.000000) scale(0.100000,-0.100000)" fill="#667686" stroke="none">
    <path
      d="M2540 5053 c-66 -98 -220 -249 -341 -335 -380 -267 -956 -437 -1486
-438 l-133 0 0 -1112 c0 -664 4 -1124 9 -1142 6 -17 20 -80 32 -141 36 -184
128 -412 234 -585 264 -426 685 -792 1246 -1082 91 -47 209 -105 264 -128 54
-23 105 -46 114 -51 36 -20 95 -39 121 -39 14 0 51 10 81 23 30 13 79 34 109
47 174 75 502 250 655 351 655 430 1029 929 1148 1534 21 108 21 130 24 1216
l3 1106 -187 6 c-287 8 -493 41 -778 123 -274 80 -541 215 -741 376 -94 76
-225 214 -266 283 -18 30 -40 54 -48 54 -8 0 -35 -30 -60 -66z m135 -579 c80
-66 254 -177 387 -247 275 -145 674 -266 1026 -311 68 -9 128 -16 133 -16 12
0 11 -1626 -1 -1751 -20 -204 -58 -337 -155 -534 -211 -431 -625 -795 -1257
-1105 l-204 -100 -40 16 c-101 42 -442 220 -552 288 -503 310 -864 734 -986
1158 -54 189 -56 223 -56 1161 l0 865 53 7 c359 45 628 113 932 237 193 79
428 219 575 342 52 43 68 52 80 43 8 -6 38 -30 65 -53z"/>
    <path
      d="M2520 3700 c-57 -7 -183 -56 -234 -90 -63 -41 -157 -145 -186 -205
-53 -109 -60 -156 -60 -417 l0 -238 129 0 130 0 3 248 c3 275 6 288 80 361 56
57 131 86 218 85 121 0 214 -55 268 -158 27 -51 27 -53 30 -293 l4 -243 130 0
130 0 -4 253 c-4 224 -7 259 -26 318 -40 120 -135 239 -243 302 -106 62 -253
93 -369 77z"/>
    <path
      d="M2588 2702 l-748 -2 0 -514 c0 -339 4 -524 11 -543 41 -110 318 -253
576 -298 163 -29 323 -16 513 42 154 46 338 151 385 221 l25 37 0 527 c0 290
-3 528 -7 530 -5 2 -344 2 -755 0z m87 -381 c86 -48 80 -186 -9 -230 -26 -12
-28 -16 -21 -58 4 -25 11 -53 15 -62 5 -9 17 -54 28 -101 l18 -85 -108 0 c-91
0 -107 2 -104 15 50 185 68 274 55 279 -8 2 -31 21 -51 41 -34 34 -38 43 -38
88 0 43 5 57 31 87 49 56 115 65 184 26z"/>
  </g>
</svg>
