<svg version="1.0" xmlns="http://www.w3.org/2000/svg"
 width="1em" height="1em" viewBox="0 0 512.000000 512.000000">
<g transform="translate(0.000000,512.000000) scale(0.100000,-0.100000)"
fill="#667686" stroke="none">
<path d="M2280 3434 c0 -455 -1 -464 -42 -464 -24 0 -68 -24 -68 -37 0 -7 -10
-13 -22 -13 -39 0 -68 -12 -68 -26 0 -8 -8 -14 -18 -14 -26 0 -72 -23 -72 -36
0 -6 -18 -14 -40 -18 -26 -4 -40 -11 -40 -21 0 -10 -10 -15 -30 -15 -16 0 -30
-4 -30 -10 0 -5 -7 -10 -15 -10 -8 0 -15 -4 -15 -10 0 -5 -8 -10 -18 -10 -27
0 -72 -23 -72 -37 0 -7 -10 -13 -22 -13 -39 0 -68 -12 -68 -26 0 -8 -8 -14
-18 -14 -22 0 -72 -22 -72 -32 0 -5 -11 -8 -25 -8 -14 0 -25 -4 -25 -10 0 -5
-7 -10 -15 -10 -8 0 -15 -7 -15 -15 0 -10 -10 -15 -30 -15 -16 0 -30 -4 -30
-10 0 -5 -7 -10 -15 -10 -8 0 -15 -4 -15 -10 0 -5 -8 -10 -18 -10 -26 0 -72
-23 -72 -36 0 -6 -18 -14 -40 -18 -23 -3 -43 -13 -46 -21 -4 -8 -16 -15 -28
-15 -12 0 -32 -9 -44 -20 -21 -19 -35 -20 -567 -20 l-545 0 0 -240 0 -240 550
0 c405 0 550 -3 550 -11 0 -17 32 -38 58 -39 12 0 22 -3 22 -7 0 -11 50 -33
72 -33 10 0 18 -6 18 -14 0 -14 29 -26 68 -26 12 0 22 -6 22 -12 0 -15 45 -38
72 -38 10 0 18 -6 18 -14 0 -14 29 -26 68 -26 13 0 22 -6 22 -15 0 -8 7 -15
15 -15 8 0 15 -4 15 -10 0 -5 11 -10 25 -10 14 0 25 -3 25 -7 0 -11 50 -33 72
-33 10 0 18 -4 18 -10 0 -5 7 -10 15 -10 8 0 15 -4 15 -10 0 -5 14 -10 30 -10
17 0 30 -5 30 -12 0 -14 44 -38 67 -38 8 0 23 -9 35 -20 12 -11 34 -20 50 -20
18 0 28 -5 28 -15 0 -8 7 -15 15 -15 8 0 15 -4 15 -10 0 -5 11 -10 25 -10 14
0 25 -3 25 -7 0 -11 50 -33 72 -33 10 0 18 -4 18 -10 0 -5 7 -10 15 -10 8 0
15 -4 15 -10 0 -5 14 -10 30 -10 18 0 30 -5 30 -13 0 -15 40 -37 66 -37 8 0
24 -9 36 -20 12 -11 34 -20 50 -20 18 0 28 -5 28 -15 0 -8 7 -15 15 -15 8 0
15 -4 15 -10 0 -5 25 -10 55 -10 30 0 55 5 55 10 0 6 7 10 15 10 8 0 15 7 15
15 0 10 10 15 30 15 17 0 30 5 30 10 0 6 7 10 15 10 8 0 15 5 15 10 0 6 8 10
18 10 27 0 72 23 72 38 0 6 10 12 23 12 13 0 33 9 45 20 12 11 32 20 45 20 13
0 33 9 45 20 12 11 27 20 35 20 23 0 67 24 67 38 0 7 13 12 30 12 17 0 30 5
30 10 0 6 7 10 15 10 8 0 15 5 15 10 0 6 8 10 18 10 27 0 72 23 72 38 0 6 10
12 23 12 13 0 33 9 45 20 12 11 32 20 45 20 13 0 33 9 45 20 12 11 27 20 35
20 23 0 67 24 67 38 0 7 13 12 30 12 17 0 30 5 30 10 0 6 7 10 15 10 8 0 15 5
15 10 0 6 10 10 23 10 25 1 57 22 57 39 0 6 13 11 28 11 16 0 38 9 50 20 12
11 28 20 36 20 21 0 66 22 66 32 0 4 8 8 18 8 27 0 72 23 72 38 0 9 121 12
570 12 l570 0 0 240 0 240 -570 0 c-313 0 -570 3 -570 8 0 9 -49 32 -67 32 -8
0 -23 9 -35 20 -12 11 -34 20 -50 20 -15 0 -28 5 -28 11 0 17 -32 38 -58 39
-13 0 -32 9 -44 20 -12 11 -32 20 -45 20 -13 0 -23 6 -23 13 0 14 -45 37 -72
37 -10 0 -18 3 -18 8 0 10 -50 32 -72 32 -10 0 -18 7 -18 15 0 8 -14 17 -36
21 -20 4 -47 17 -61 30 -14 13 -37 24 -49 24 -13 0 -24 5 -24 10 0 6 -7 10
-15 10 -8 0 -15 5 -15 10 0 6 -13 10 -30 10 -19 0 -30 5 -30 14 0 14 -29 26
-67 26 -13 0 -23 6 -23 13 0 16 -41 37 -70 37 -11 0 -20 7 -20 15 0 8 -14 17
-36 21 -20 4 -47 17 -61 30 -14 13 -37 24 -49 24 -13 0 -24 5 -24 10 0 6 -7
10 -15 10 -13 0 -15 56 -15 440 l0 440 -240 0 -240 0 0 -436z m270 -934 c0 -5
14 -10 30 -10 17 0 30 -5 30 -12 0 -14 44 -38 67 -38 8 0 23 -9 35 -20 12 -11
32 -20 45 -20 13 0 33 -9 45 -20 12 -11 32 -20 45 -20 13 0 23 -6 23 -12 0
-15 45 -38 72 -38 10 0 18 -4 18 -10 0 -5 7 -10 15 -10 8 0 15 -4 15 -10 0 -5
14 -10 30 -10 19 0 30 -5 30 -14 0 -14 29 -26 68 -26 12 0 22 -5 22 -11 0 -17
32 -38 58 -39 16 0 22 -6 22 -24 0 -20 -6 -24 -40 -30 -26 -4 -40 -11 -40 -21
0 -8 -9 -15 -20 -15 -29 0 -70 -21 -70 -37 0 -7 -10 -13 -22 -13 -39 0 -68
-12 -68 -26 0 -8 -8 -14 -18 -14 -22 0 -72 -22 -72 -32 0 -5 -11 -8 -24 -8
-12 0 -35 -11 -49 -24 -14 -13 -41 -26 -61 -30 -22 -4 -36 -13 -36 -21 0 -8
-8 -15 -18 -15 -26 0 -72 -23 -72 -36 0 -15 -81 -26 -131 -18 -21 4 -39 12
-39 18 0 13 -46 36 -72 36 -10 0 -18 6 -18 14 0 14 -29 26 -67 26 -13 0 -23 6
-23 13 0 13 -44 37 -67 37 -8 0 -23 9 -35 20 -12 11 -32 20 -44 20 -12 0 -24
7 -28 15 -3 8 -23 18 -46 21 -22 4 -40 12 -40 18 0 13 -46 36 -72 36 -10 0
-18 5 -18 10 0 6 -7 10 -15 10 -8 0 -15 5 -15 10 0 6 -13 10 -30 10 -25 0 -30
4 -30 25 0 17 5 25 18 25 27 0 72 23 72 38 0 6 10 12 23 12 38 0 67 12 67 26
0 8 10 14 23 14 13 0 33 9 45 20 12 11 31 20 44 20 26 1 58 22 58 39 0 6 14
11 30 11 17 0 30 5 30 10 0 6 7 10 15 10 8 0 15 5 15 10 0 6 8 10 18 10 22 0
72 22 72 33 0 4 8 7 18 7 27 0 72 23 72 38 0 6 11 12 24 12 14 0 28 5 31 10 3
6 17 10 31 10 13 0 24 -4 24 -10z"/>
</g>
</svg>
