<svg xmlns="http://www.w3.org/2000/svg" width="11.000000pt" height="11.000000pt" viewBox="0 0 512.000000 512.000000">
  <g transform="translate(0.000000,512.000000) scale(0.100000,-0.100000)" fill="#eeeeee" stroke="none">
    <path
      d="M2384 5105 c-218 -50 -409 -199 -508 -397 -25 -51 -52 -118 -60 -148
l-13 -55 -529 -6 c-457 -5 -537 -8 -588 -23 -255 -73 -409 -313 -376 -583 27
-216 201 -395 420 -433 46 -8 587 -10 1860 -8 l1795 3 65 23 c163 58 286 187
334 351 23 78 21 222 -4 303 -39 126 -128 232 -248 296 -122 65 -123 65 -708
70 l-531 4 -12 55 c-16 71 -88 213 -144 284 -90 112 -232 208 -374 250 -89 27
-291 34 -379 14z m258 -259 c101 -22 175 -62 245 -132 58 -57 123 -164 123
-201 0 -10 -101 -13 -470 -13 l-470 0 15 38 c80 189 258 314 460 321 17 0 60
-6 97 -13z m1746 -632 c66 -33 117 -93 139 -161 45 -144 -65 -306 -227 -333
-45 -7 -583 -10 -1790 -8 l-1725 3 -50 23 c-95 44 -152 121 -162 217 -11 105
53 215 151 261 l51 24 1781 0 1780 0 52 -26z"/>
    <path
      d="M807 3183 c-60 -39 -58 21 -55 -1328 l3 -1230 23 -75 c42 -137 96
-225 202 -331 82 -82 108 -102 190 -141 170 -83 94 -79 1410 -76 l1165 3 72
26 c206 76 363 215 452 402 75 156 71 81 71 1461 l0 1236 -28 31 c-24 27 -37
33 -84 37 -69 5 -114 -16 -134 -63 -12 -29 -14 -219 -14 -1229 0 -834 -3
-1211 -11 -1248 -39 -185 -202 -350 -383 -388 -35 -7 -413 -10 -1166 -8
l-1115 3 -60 24 c-154 61 -271 188 -309 336 -14 52 -16 207 -16 1255 0 760 -4
1208 -10 1231 -16 57 -51 82 -118 86 -42 3 -64 -1 -85 -14z"/>
    <path d="M1574 3001 c-17 -10 -36 -34 -43 -52 -8 -23 -11 -340 -11 -1133 0
-1087 0 -1101 20 -1134 21 -34 71 -62 111 -62 36 0 90 32 110 64 18 30 19 73
19 1148 l0 1118 -29 32 c-24 27 -36 32 -87 35 -46 3 -66 0 -90 -16z"/>
    <path d="M2484 3010 c-12 -4 -31 -21 -43 -36 l-21 -27 0 -1119 c0 -1235 -4
-1160 64 -1192 67 -31 136 -9 176 56 20 32 20 53 20 1131 0 1202 3 1150 -59
1181 -32 17 -103 20 -137 6z"/>
    <path d="M3368 3003 c-56 -35 -53 23 -53 -1184 l0 -1118 21 -28 c51 -68 158
-66 211 4 l28 36 3 1076 c2 592 0 1096 -3 1120 -5 32 -16 54 -40 78 -29 29
-39 33 -86 33 -33 0 -65 -7 -81 -17z"/>
  </g>
</svg>
