<svg xmlns="http://www.w3.org/2000/svg" width="14.000000pt" height="14.000000pt" viewBox="0 0 512.000000 512.000000">
  <g transform="translate(0.000000,512.000000) scale(0.100000,-0.100000)" fill="#eeeeee" stroke="none">
    <path d="M3675 4464 c-16 -8 -126 -110 -243 -227 l-212 -212 402 -402 403
-403 208 208 c115 114 217 224 228 244 25 49 25 139 0 193 -26 55 -552 579
-603 600 -48 19 -144 19 -183 -1z"/>
    <path d="M1817 2622 l-1177 -1177 0 -403 0 -402 403 0 402 0 1178 1178 c647
647 1177 1182 1177 1187 0 13 -782 795 -795 795 -6 0 -540 -530 -1188 -1178z"/>
  </g>
</svg>
