<svg xmlns="http://www.w3.org/2000/svg" width="1em" height="1em" viewBox="0 0 512.000000 512.000000">
  <g transform="translate(0.000000,512.000000) scale(0.100000,-0.100000)" fill="#667686" stroke="none">
    <path
      d="M2114 5095 c-45 -26 -86 -80 -103 -135 -6 -19 -21 -89 -34 -155 -12
-66 -26 -120 -32 -120 -18 -1 -180 -58 -185 -65 -3 -4 -16 -11 -30 -15 -43
-14 -202 -93 -287 -144 -97 -58 -236 -163 -310 -235 l-53 -50 -72 23 c-40 13
-77 27 -83 31 -17 13 -117 40 -149 40 -90 0 -159 -49 -220 -155 -18 -33 -74
-130 -123 -215 -233 -404 -233 -403 -233 -486 0 -41 4 -74 9 -74 5 0 12 -10
16 -22 3 -13 58 -72 120 -133 l115 -110 -20 -78 c-64 -265 -65 -608 0 -874
l19 -78 -113 -110 c-63 -60 -117 -120 -121 -132 -3 -13 -11 -23 -16 -23 -5 0
-9 -33 -9 -74 0 -73 1 -77 66 -193 37 -65 100 -179 142 -253 174 -313 206
-358 277 -391 22 -10 58 -19 81 -19 40 0 140 25 159 40 6 4 42 18 82 31 l72
23 53 -50 c71 -67 237 -191 323 -242 76 -45 235 -124 275 -137 14 -4 27 -11
30 -15 5 -7 167 -64 185 -65 6 0 22 -58 36 -130 14 -72 29 -141 33 -155 14
-45 59 -101 101 -126 l42 -24 423 0 423 0 43 25 c23 13 56 45 72 71 31 46 37
68 68 240 l16 91 82 28 c44 15 104 38 131 51 28 12 79 35 115 51 150 68 379
222 497 336 l52 51 58 -18 c32 -10 72 -24 88 -31 150 -65 236 -58 315 24 25
26 60 74 79 107 18 32 83 147 143 254 214 377 198 343 198 426 0 41 -4 74 -9
74 -5 0 -12 11 -15 24 -3 13 -57 72 -119 130 l-114 106 18 83 c63 292 63 582
0 874 l-18 83 114 106 c62 58 116 117 119 130 3 13 10 24 15 24 5 0 9 33 9 73
0 83 8 66 -187 412 -177 315 -199 349 -236 386 -40 38 -92 59 -148 59 -19 0
-96 -21 -171 -47 l-137 -48 -53 51 c-120 115 -348 269 -498 337 -36 16 -87 39
-115 51 -27 13 -87 36 -132 51 -46 16 -83 31 -83 35 0 4 -11 66 -24 139 -29
156 -55 208 -124 252 l-46 29 -425 0 -426 0 -41 -25z m806 -212 c0 -19 62
-341 69 -358 6 -14 29 -25 82 -39 41 -10 93 -27 116 -37 23 -11 45 -19 49 -19
21 0 202 -80 279 -123 169 -95 412 -285 475 -372 14 -19 30 -35 37 -35 6 0 49
14 95 30 46 17 123 44 173 60 82 27 91 28 100 13 10 -17 126 -222 258 -457 37
-66 67 -121 67 -122 0 -2 -42 -40 -92 -85 -51 -45 -114 -102 -140 -126 l-48
-43 25 -103 c44 -182 59 -308 59 -507 0 -199 -15 -325 -59 -507 l-25 -103 48
-43 c26 -24 89 -81 140 -126 l93 -83 -42 -76 c-23 -43 -69 -126 -104 -187 -34
-60 -88 -155 -119 -210 -30 -55 -59 -105 -64 -112 -6 -9 -31 -5 -102 18 -52
16 -108 35 -125 43 -16 8 -56 22 -87 32 l-57 17 -23 -29 c-76 -99 -311 -284
-483 -381 -77 -43 -258 -123 -279 -123 -4 0 -26 -8 -49 -19 -23 -10 -75 -27
-116 -37 -53 -14 -76 -25 -82 -39 -7 -17 -69 -339 -69 -358 0 -4 -153 -7 -340
-7 -187 0 -340 3 -340 6 0 22 -62 343 -69 360 -7 16 -27 26 -83 39 -40 10 -86
23 -103 31 -16 7 -66 26 -111 42 -222 80 -501 267 -679 452 l-59 63 -81 -28
c-231 -80 -280 -95 -282 -88 -2 4 -14 26 -28 48 -13 22 -45 78 -71 125 -26 47
-71 126 -99 175 -29 50 -71 124 -94 166 l-41 77 92 82 c51 46 114 103 140 127
l48 43 -25 103 c-44 182 -59 308 -59 507 0 199 15 325 59 509 14 57 24 105 23
106 -3 1 -163 144 -245 219 l-33 29 47 86 c25 47 67 122 93 166 26 44 68 118
94 165 26 47 58 103 71 125 14 22 26 43 27 48 3 7 195 -49 213 -63 6 -4 42
-18 81 -30 l70 -23 60 63 c120 126 324 282 460 350 27 14 51 28 54 31 7 8 167
74 215 89 22 7 45 16 50 21 6 4 50 18 99 30 67 17 90 27 97 43 7 17 69 339 69
360 0 3 153 6 340 6 187 0 340 -3 340 -7z"/>
    <path
      d="M3585 3352 c-60 -3 -74 -7 -99 -30 -42 -40 -57 -82 -45 -125 11 -39
60 -87 90 -87 19 0 19 -14 19 -550 0 -536 0 -550 -19 -550 -30 0 -79 -47 -90
-86 -12 -44 -1 -78 42 -121 l31 -33 147 0 c165 0 194 9 225 66 36 66 -13 174
-79 174 l-22 0 0 550 0 550 22 0 c13 0 37 12 53 28 58 51 51 152 -14 191 -33
20 -130 29 -261 23z"/>
    <path
      d="M1583 3325 c-36 -29 -50 -66 -138 -375 -31 -107 -60 -204 -65 -215
-6 -11 -25 -72 -44 -135 -74 -255 -156 -527 -171 -569 -19 -54 -20 -153 -1
-189 24 -46 62 -72 106 -72 71 0 120 51 120 126 0 20 12 74 26 120 l26 84 213
0 213 0 26 -84 c14 -46 26 -100 26 -120 0 -102 102 -161 181 -105 70 49 76
125 24 303 -20 67 -40 130 -46 141 -5 11 -38 119 -74 240 -242 827 -239 819
-279 850 -44 34 -100 34 -143 0z m163 -819 c24 -77 44 -143 44 -148 0 -4 -61
-8 -135 -8 -74 0 -135 4 -135 8 0 14 50 187 59 202 4 8 16 41 25 73 9 31 23
83 32 114 l17 58 24 -80 c14 -44 45 -143 69 -219z"/>
    <path
      d="M2388 3309 l-38 -41 0 -708 0 -708 38 -41 c34 -36 43 -41 83 -41 47
1 86 25 108 67 7 14 11 102 11 257 l0 236 188 0 c231 0 268 9 347 81 32 30 66
74 82 108 l28 56 0 265 0 265 -32 61 c-38 74 -87 118 -170 156 l-63 28 -272 0
-273 0 -37 -41z m551 -210 c55 -19 61 -45 61 -268 0 -197 0 -200 -24 -228
l-24 -28 -181 -3 -181 -4 0 271 0 271 159 0 c90 0 172 -5 190 -11z"/>
  </g>
</svg>
