<svg version="1.0" xmlns="http://www.w3.org/2000/svg"
 width="11.000000pt" height="11.000000pt" viewBox="0 0 512.000000 512.000000">
<g transform="translate(0.000000,512.000000) scale(0.100000,-0.100000)"
fill="red" stroke="none">
<path d="M2646 5051 c-3 -5 -36 -9 -73 -9 -142 -2 -322 -15 -317 -23 3 -5 -18
-9 -45 -9 -28 0 -51 -4 -51 -10 0 -5 -17 -10 -39 -10 -21 0 -55 -7 -74 -15
-20 -8 -53 -15 -72 -15 -20 0 -34 -4 -31 -9 3 -5 -9 -11 -27 -14 -57 -10 -128
-33 -121 -40 4 -4 -7 -7 -24 -7 -18 0 -32 -4 -32 -10 0 -5 -8 -10 -17 -10 -10
0 -27 -7 -37 -15 -11 -8 -32 -15 -48 -15 -15 0 -28 -3 -28 -8 0 -4 -20 -16
-45 -27 -25 -11 -45 -23 -45 -27 0 -5 -11 -8 -25 -8 -14 0 -25 -4 -25 -10 0
-5 -6 -10 -14 -10 -7 0 -19 -7 -26 -15 -7 -8 -20 -15 -29 -15 -9 0 -23 -9 -31
-20 -8 -10 -27 -22 -43 -26 -27 -5 -134 -78 -183 -124 -12 -11 -27 -20 -33
-20 -6 0 -11 -4 -11 -10 0 -5 -4 -10 -10 -10 -5 0 -32 -23 -60 -50 -28 -28
-55 -48 -60 -45 -6 4 -7 -1 -3 -11 5 -14 3 -16 -11 -11 -11 4 -15 3 -11 -4 9
-14 -25 -51 -41 -45 -9 3 -11 -1 -7 -11 5 -12 2 -15 -10 -10 -10 4 -14 2 -11
-7 6 -16 -31 -50 -45 -41 -6 3 -9 0 -6 -8 7 -16 -30 -51 -44 -42 -6 3 -9 0 -6
-7 3 -8 -41 -62 -105 -128 -146 -152 -150 -157 -150 -174 0 -8 -11 -23 -25
-34 -16 -13 -21 -22 -13 -24 8 -3 3 -15 -15 -34 -15 -16 -27 -33 -27 -39 0 -6
-9 -17 -20 -25 -11 -8 -20 -24 -20 -36 0 -12 -7 -27 -15 -34 -8 -7 -15 -17
-15 -23 0 -5 -8 -17 -18 -26 -11 -9 -22 -33 -26 -53 -4 -21 -11 -38 -16 -38
-6 0 -10 -9 -10 -21 0 -11 -4 -17 -10 -14 -6 4 -10 -6 -10 -22 0 -15 -7 -37
-15 -47 -8 -11 -15 -30 -15 -43 0 -13 -4 -23 -10 -23 -5 0 -10 -9 -10 -20 0
-11 -4 -20 -9 -20 -5 0 -12 -20 -15 -45 -4 -25 -11 -45 -17 -45 -5 0 -9 -13
-9 -30 0 -16 -4 -30 -9 -30 -4 0 -11 -23 -14 -52 -4 -28 -11 -56 -17 -62 -5
-5 -10 -25 -10 -43 0 -18 -4 -33 -10 -33 -6 0 -10 -28 -11 -62 0 -42 -3 -56
-8 -43 -8 18 -28 -250 -22 -283 1 -8 -3 -20 -9 -27 -8 -10 -8 -19 2 -36 10
-17 10 -23 1 -26 -7 -3 -13 -11 -13 -18 0 -7 6 -15 13 -18 9 -3 9 -9 -1 -27
-10 -16 -11 -25 -3 -30 7 -3 11 -20 10 -36 -4 -63 13 -299 22 -302 5 -2 9 -24
9 -48 0 -24 5 -44 10 -44 6 0 10 -13 10 -29 0 -16 7 -45 15 -64 8 -20 15 -52
15 -72 0 -19 5 -35 10 -35 6 0 10 -9 10 -20 0 -11 5 -20 10 -20 6 0 10 -6 9
-12 -4 -22 13 -88 22 -88 5 0 9 -9 9 -20 0 -11 4 -20 9 -20 6 0 9 -9 8 -19 -1
-17 30 -89 44 -101 6 -5 22 -40 23 -52 1 -3 4 -10 9 -14 4 -4 7 -16 7 -26 0
-10 5 -18 10 -18 6 0 10 -8 10 -18 0 -10 9 -24 20 -32 10 -8 22 -27 25 -42 4
-15 10 -28 14 -28 4 0 16 -17 27 -37 10 -21 27 -44 37 -51 9 -7 17 -19 17 -26
0 -8 7 -16 15 -20 8 -3 15 -15 15 -26 0 -12 5 -18 10 -15 5 3 10 1 10 -5 0 -7
11 -21 25 -32 14 -11 25 -26 25 -35 0 -8 12 -24 26 -35 14 -11 23 -26 20 -34
-3 -7 0 -11 7 -8 7 2 21 -7 31 -21 26 -34 83 -95 90 -95 3 0 23 -17 44 -37 80
-78 164 -153 172 -153 4 0 16 -11 26 -25 10 -14 22 -25 27 -25 4 0 13 -5 20
-10 52 -45 75 -61 104 -77 18 -10 31 -23 29 -30 -3 -7 1 -10 8 -7 8 3 17 1 21
-5 3 -6 15 -11 25 -11 11 0 30 -11 44 -25 14 -14 28 -25 32 -25 15 0 84 -34
84 -42 0 -4 11 -8 24 -8 13 0 26 -3 28 -7 5 -13 68 -43 89 -43 11 0 18 -4 15
-9 -6 -9 48 -25 72 -22 6 1 12 -3 12 -9 0 -5 9 -10 20 -10 11 0 20 -4 20 -10
0 -5 11 -10 25 -10 14 0 25 -4 25 -9 0 -4 21 -11 47 -14 26 -3 49 -10 51 -16
2 -6 19 -11 38 -11 19 0 34 -4 34 -9 0 -5 29 -12 65 -16 36 -3 67 -11 70 -16
4 -5 26 -9 51 -9 24 0 44 -4 44 -10 0 -6 31 -10 73 -10 50 0 67 -3 57 -10 -10
-7 25 -10 110 -11 250 -3 485 3 488 12 2 5 28 9 58 9 30 0 54 5 54 10 0 6 7
10 16 10 8 0 12 -4 9 -10 -3 -5 -1 -10 4 -10 6 0 11 3 11 8 0 8 108 32 178 40
23 2 42 8 42 13 0 5 8 9 18 9 10 0 22 3 26 8 4 4 11 7 14 8 39 3 92 18 92 25
0 5 16 9 35 9 19 0 35 5 35 10 0 6 6 10 14 10 8 0 16 5 18 11 2 6 25 13 51 16
25 3 44 9 41 14 -3 5 4 9 15 9 12 0 21 4 21 9 0 5 14 12 30 16 17 4 30 11 30
16 0 5 9 9 20 9 11 0 20 5 20 10 0 6 6 10 14 10 24 0 92 40 131 77 7 7 15 9
19 6 3 -3 15 4 25 16 11 13 27 24 35 25 8 1 24 12 34 24 11 12 26 22 35 22 9
0 24 11 35 25 11 14 25 25 32 25 7 0 32 17 55 37 23 21 50 45 61 54 10 9 47
46 82 83 34 37 66 65 71 62 5 -3 8 0 7 7 -1 11 62 86 162 192 12 13 22 28 22
32 0 5 16 26 35 46 19 20 35 40 35 44 0 3 11 21 25 39 14 18 25 37 25 43 0 6
5 11 12 11 6 0 9 3 5 6 -3 3 3 15 14 27 10 11 19 29 19 39 0 10 4 18 9 18 5 0
12 11 15 25 4 14 11 25 16 25 6 0 10 7 10 15 0 8 4 15 10 15 5 0 9 3 9 8 -4
24 2 42 12 36 7 -4 10 -1 7 7 -3 8 4 29 14 47 10 18 18 39 18 47 0 8 5 15 10
15 6 0 10 9 10 19 0 11 5 23 10 26 6 4 10 12 9 18 -2 19 13 57 22 57 5 0 9 14
9 30 0 17 4 30 9 30 5 0 11 23 15 50 4 28 11 50 16 50 6 0 10 16 10 35 0 19 4
35 9 35 7 0 16 48 24 127 1 12 5 25 10 29 4 4 7 25 7 46 0 21 5 38 10 38 6 0
10 32 10 75 0 43 4 75 10 75 6 0 10 94 10 261 0 171 -3 258 -10 254 -6 -4 -10
23 -10 74 0 45 -4 81 -9 81 -5 0 -11 19 -15 43 -16 121 -30 197 -38 197 -4 0
-8 11 -8 25 0 14 -5 25 -10 25 -6 0 -10 6 -9 13 5 22 -13 97 -22 97 -5 0 -9
14 -9 30 0 17 -3 30 -7 30 -5 0 -17 29 -28 65 -10 36 -22 65 -26 65 -4 0 -10
10 -14 23 -4 12 -8 24 -9 27 -2 3 -6 17 -10 33 -5 15 -12 27 -17 27 -5 0 -9 9
-9 19 0 11 -5 21 -11 23 -5 2 -11 10 -13 18 -5 26 -30 74 -47 90 -9 8 -19 27
-23 43 -3 15 -11 27 -16 27 -6 0 -10 7 -10 15 0 9 -11 27 -25 41 -14 14 -25
31 -25 39 0 8 -5 15 -11 15 -6 0 -9 7 -6 14 4 10 1 13 -9 9 -13 -5 -18 6 -15
32 0 6 -123 133 -273 284 -205 204 -279 272 -292 267 -12 -5 -15 -2 -10 9 3
10 2 13 -5 10 -5 -4 -18 2 -27 13 -9 10 -27 22 -39 26 -13 4 -23 12 -23 17 0
5 -7 9 -15 9 -9 0 -26 9 -38 20 -12 11 -26 19 -33 16 -6 -2 -17 4 -25 15 -7
10 -19 19 -25 19 -6 0 -17 7 -24 15 -7 9 -19 14 -26 11 -8 -3 -20 1 -28 9 -8
8 -22 15 -30 15 -9 0 -16 5 -16 10 0 6 -9 10 -19 10 -11 0 -23 5 -26 11 -4 6
-13 8 -21 5 -8 -3 -14 -1 -14 4 0 6 -7 10 -15 10 -8 0 -15 5 -15 10 0 6 -11
10 -25 10 -14 0 -25 4 -25 9 0 5 -18 11 -40 15 -22 3 -40 10 -40 15 0 5 -6 9
-12 8 -36 -1 -59 4 -54 12 3 5 -18 11 -47 15 -77 10 -86 12 -93 19 -4 4 -22 7
-41 7 -18 0 -33 5 -33 10 0 6 -22 10 -50 10 -27 0 -50 4 -50 9 0 8 -262 28
-307 23 -12 -1 -24 2 -28 8 -8 12 -22 13 -29 1z m653 -1496 c42 -41 98 -95
124 -120 26 -25 46 -49 43 -54 -3 -5 2 -8 12 -7 10 0 17 -6 16 -16 -1 -11 4
-14 14 -10 11 4 14 1 9 -11 -4 -10 -2 -14 7 -11 16 6 50 -31 41 -45 -3 -6 0
-9 8 -6 7 3 21 -3 30 -13 21 -23 25 -18 -197 -248 -77 -79 -158 -165 -180
-191 -23 -26 -85 -92 -138 -147 -66 -67 -98 -108 -98 -123 0 -13 5 -23 11 -23
6 0 88 -76 182 -169 95 -93 189 -184 210 -202 22 -19 86 -79 143 -133 97 -92
124 -126 90 -113 -7 3 -13 0 -12 -7 0 -7 -42 -58 -94 -114 -52 -56 -108 -117
-125 -137 -16 -19 -35 -33 -42 -31 -8 3 -10 -1 -6 -11 5 -13 2 -15 -11 -10
-11 4 -15 3 -11 -4 9 -14 -26 -51 -42 -44 -8 3 -11 0 -8 -6 4 -5 1 -17 -6 -25
-10 -12 -26 -1 -103 75 -50 49 -105 102 -122 118 -17 15 -58 52 -90 82 -32 29
-123 116 -201 192 -89 87 -149 139 -162 139 -19 0 -284 -260 -364 -357 -54
-65 -281 -293 -292 -293 -18 1 -148 127 -142 138 4 5 1 9 -7 8 -7 0 -47 31
-89 69 -41 39 -92 83 -112 99 -20 16 -34 35 -31 42 3 8 0 11 -10 7 -29 -11
-12 14 65 95 44 45 77 82 73 82 -3 0 67 73 155 163 182 184 301 309 321 338
15 21 25 9 -144 168 -43 41 -138 131 -210 200 -72 69 -141 133 -152 141 -12 9
-51 44 -87 79 -63 61 -65 64 -49 83 10 10 24 16 31 13 8 -3 11 0 7 6 -8 14 96
121 112 115 6 -2 11 1 10 8 0 7 29 46 66 87 37 41 82 91 101 112 25 27 39 36
53 31 15 -5 16 -4 4 5 -8 5 -11 13 -7 17 4 5 67 -51 140 -122 73 -72 152 -148
176 -170 24 -21 110 -103 190 -181 112 -110 152 -143 172 -143 19 0 40 16 80
62 30 33 122 131 206 217 83 86 164 171 180 189 40 48 177 192 182 192 3 0 39
-34 80 -75z"/>
</g>
</svg>
