<svg xmlns="http://www.w3.org/2000/svg" width="1em" height="1em" viewBox="0 0 512.000000 512.000000">
  <g transform="translate(0.000000,512.000000) scale(0.100000,-0.100000)" fill="#667686" stroke="none">
    <path
      d="M1234 5096 c-11 -11 -85 -82 -164 -156 -79 -74 -176 -166 -215 -205
-62 -61 -203 -195 -540 -516 -195 -186 -275 -265 -275 -272 0 -4 -9 -17 -20
-29 -17 -18 -20 -36 -20 -103 0 -69 3 -85 20 -100 11 -10 20 -22 20 -26 0 -8
85 -92 265 -264 124 -118 264 -252 446 -426 107 -103 232 -222 279 -265 46
-44 108 -103 136 -131 29 -29 57 -53 62 -53 5 0 15 -7 22 -15 21 -25 131 -20
173 8 76 50 113 131 104 224 -8 79 -7 78 -276 333 -78 74 -203 194 -278 267
-75 72 -160 151 -189 175 -29 23 -53 46 -54 51 0 4 836 7 1858 7 1749 0 1858
1 1883 18 78 53 99 95 99 199 0 98 -6 112 -72 176 l-40 37 -1864 0 c-1025 0
-1864 4 -1864 8 0 5 17 22 37 38 20 16 62 54 93 84 31 30 127 123 214 205 87
83 223 213 301 290 136 133 144 142 150 188 4 26 4 72 0 103 -6 52 -12 62 -66
115 l-58 59 -73 -1 c-61 -1 -77 -5 -94 -23z"/>
    <path
      d="M3715 2548 c-17 -11 -45 -42 -63 -68 -29 -43 -32 -53 -32 -126 0 -94
8 -109 123 -217 40 -37 117 -112 173 -165 214 -206 411 -393 462 -439 l52 -48
-1870 3 -1871 2 -57 -58 c-48 -49 -59 -67 -70 -115 -9 -40 -10 -62 -2 -76 5
-11 10 -31 10 -46 0 -14 7 -28 15 -31 8 -4 15 -12 15 -19 0 -8 20 -30 44 -49
l43 -36 1874 0 1874 0 -27 -25 c-15 -14 -29 -25 -32 -25 -3 0 -36 -30 -74 -67
-204 -200 -261 -253 -271 -253 -6 0 -11 -6 -11 -14 0 -8 -5 -16 -10 -18 -20
-6 -362 -343 -376 -370 -8 -16 -14 -57 -14 -100 0 -76 6 -90 62 -156 l27 -32
108 0 108 0 155 150 c85 83 184 179 220 213 36 34 131 125 211 202 80 77 212
203 294 280 81 77 186 177 232 222 l83 83 0 121 0 122 -47 49 c-27 27 -61 62
-77 76 -16 15 -76 72 -132 127 -57 55 -146 141 -199 190 -53 50 -150 142 -215
205 -65 63 -191 185 -281 270 -90 85 -179 170 -198 188 -70 68 -79 72 -155 71
-55 0 -78 -5 -101 -21z"/>
  </g>
</svg>
