<svg version="1.0" xmlns="http://www.w3.org/2000/svg" width="1em" height="1em" viewBox="0 0 512.000000 512.000000">
  <g transform="translate(0.000000,512.000000) scale(0.100000,-0.100000)" fill="#667686" stroke="none">
    <path
      d="M4388 5114 c-2 -1 -15 -5 -28 -8 -14 -3 -35 -7 -48 -10 -30 -7 -172
-78 -203 -102 -78 -61 -150 -150 -194 -240 l-45 -94 -453 0 -452 0 -20 -33
c-10 -17 -36 -61 -56 -97 -20 -36 -78 -137 -129 -225 -51 -88 -154 -266 -228
-395 -74 -129 -142 -248 -152 -265 -74 -126 -303 -526 -397 -690 -63 -109
-115 -199 -116 -200 -1 0 -143 2 -316 5 l-313 5 -19 47 c-20 52 -61 119 -96
158 -13 14 -23 28 -23 31 0 4 -33 32 -72 62 -70 54 -179 112 -229 123 -81 17
-198 22 -269 11 -61 -10 -128 -34 -194 -70 -166 -92 -278 -238 -324 -427 -8
-30 -8 -226 0 -255 28 -112 50 -162 107 -240 94 -130 259 -238 401 -263 36 -6
200 -6 235 1 92 17 232 89 302 157 89 85 157 190 178 270 l6 25 306 -2 307 -3
59 -102 c33 -57 73 -128 90 -158 16 -30 34 -60 38 -65 7 -9 177 -304 254 -440
13 -22 72 -125 132 -230 61 -104 163 -282 228 -395 64 -113 162 -283 218 -378
l100 -173 452 3 452 3 22 -55 c27 -66 90 -161 140 -211 44 -43 146 -114 192
-132 83 -34 74 -31 119 -42 33 -9 260 -13 260 -5 0 4 6 7 13 8 89 6 268 116
348 214 100 123 149 267 144 423 -4 116 -4 120 -41 211 -46 116 -118 209 -219
284 -69 50 -198 108 -227 102 -5 -1 -8 1 -8 6 0 8 -46 12 -135 12 -84 0 -135
-4 -135 -11 0 -3 -6 -6 -12 -6 -23 0 -137 -50 -194 -84 -61 -38 -157 -133
-195 -194 -13 -22 -36 -67 -50 -100 l-26 -60 -350 -3 c-273 -2 -353 1 -361 10
-5 7 -52 87 -104 178 -52 91 -146 253 -208 360 -136 235 -120 208 -265 460
-64 113 -125 219 -135 235 -10 17 -58 100 -106 185 l-89 155 811 0 812 0 18
-54 c42 -123 168 -265 294 -330 108 -57 198 -79 306 -75 106 4 114 5 182 28
209 70 370 247 429 471 13 48 11 226 -3 272 -8 26 -14 48 -14 48 1 0 -4 14
-10 30 -75 208 -276 376 -490 412 -32 6 -178 6 -210 0 -139 -23 -302 -119
-382 -225 -45 -59 -92 -138 -105 -177 l-10 -30 -805 -5 -806 -5 13 25 c7 14
55 97 105 185 51 88 153 266 228 395 74 129 147 255 162 280 15 25 41 70 57
100 17 30 71 125 120 210 50 85 118 203 152 263 l63 107 350 -2 349 -3 26 -65
c66 -164 191 -287 364 -357 59 -24 73 -28 134 -39 56 -11 225 -4 225 8 0 5 3
7 8 6 44 -9 222 86 297 159 81 80 152 203 182 318 3 11 6 65 8 120 9 258 -131
481 -372 595 -64 31 -93 41 -120 42 -7 1 -13 4 -13 7 0 6 -217 11 -222 5z"/>
    <path d="M2703 2773 c214 -2 560 -2 770 0 210 1 36 2 -388 2 -423 0 -595 -1
-382 -2z"/>
    <path d="M2297 2373 c-5 -7 548 -7 1278 0 154 1 -70 3 -497 5 -427 1 -779 -1
-781 -5z"/>
  </g>
</svg>
