<svg version="1.0" xmlns="http://www.w3.org/2000/svg"
 width="1em" height="1em" viewBox="0 0 512.000000 512.000000">
<g transform="translate(0.000000,512.000000) scale(0.100000,-0.100000)"
fill="#667686" stroke="none">
<path d="M2340 4530 c0 -6 -35 -10 -85 -10 -63 0 -84 -3 -82 -12 1 -9 -16 -14
-56 -16 -33 -2 -55 -7 -52 -13 4 -5 -15 -9 -44 -9 -39 0 -51 -4 -51 -15 0 -11
-11 -15 -41 -15 -24 0 -38 -4 -34 -10 4 -6 -8 -10 -29 -10 -25 0 -36 -4 -36
-15 0 -11 -11 -15 -36 -15 -21 0 -33 -4 -29 -10 4 -6 -7 -13 -24 -16 -17 -4
-31 -10 -31 -15 0 -5 -11 -9 -24 -9 -13 0 -26 -7 -30 -15 -3 -8 -15 -15 -26
-15 -11 0 -20 -4 -20 -10 0 -5 -11 -10 -25 -10 -14 0 -24 -5 -23 -12 2 -7 -7
-14 -20 -16 -12 -2 -20 -8 -17 -13 4 -5 -3 -9 -15 -9 -11 0 -23 -7 -26 -15 -4
-8 -12 -15 -20 -15 -8 0 -14 -3 -14 -8 0 -7 -30 -25 -62 -38 -10 -3 -18 -13
-18 -20 0 -8 -7 -14 -15 -14 -8 0 -15 -4 -15 -10 0 -5 -7 -10 -15 -10 -8 0
-15 -5 -15 -10 0 -6 -7 -13 -15 -17 -21 -7 -255 -242 -255 -254 0 -5 -7 -12
-15 -15 -8 -4 -15 -12 -15 -20 0 -8 -4 -14 -10 -14 -5 0 -10 -7 -10 -15 0 -8
-6 -15 -13 -15 -12 0 -28 -24 -43 -62 -3 -10 -10 -18 -15 -18 -5 0 -9 -6 -9
-14 0 -8 -7 -16 -15 -20 -8 -3 -15 -15 -15 -26 0 -12 -4 -19 -9 -15 -5 3 -11
-5 -13 -17 -2 -13 -9 -22 -16 -20 -7 1 -12 -9 -12 -23 0 -14 -4 -25 -10 -25
-5 0 -10 -9 -10 -20 0 -11 -7 -23 -15 -26 -8 -4 -15 -17 -15 -30 0 -13 -4 -24
-9 -24 -5 0 -11 -14 -15 -31 -3 -17 -10 -28 -16 -24 -6 4 -10 -8 -10 -29 0
-25 -4 -36 -15 -36 -11 0 -15 -11 -15 -36 0 -21 -4 -33 -10 -29 -6 4 -10 -10
-10 -34 0 -30 -4 -41 -15 -41 -11 0 -15 -12 -15 -51 0 -29 -4 -48 -9 -44 -6 3
-11 -19 -13 -52 -2 -40 -7 -57 -15 -55 -10 1 -13 -20 -13 -83 0 -50 -4 -85
-10 -85 -6 0 -10 -45 -10 -115 l0 -115 305 0 304 0 3 118 c2 87 6 116 16 114
8 -1 12 16 12 63 0 36 4 65 9 65 6 0 11 19 13 43 2 27 7 41 16 39 8 -1 12 11
12 39 0 22 4 38 9 34 5 -3 11 9 13 27 2 20 8 32 16 30 7 -1 12 9 12 28 0 16 4
30 9 30 5 0 11 10 13 23 2 12 9 21 16 20 7 -2 12 8 12 22 0 14 4 25 10 25 5 0
12 11 16 25 3 14 10 22 15 19 5 -3 9 4 9 14 0 11 7 22 15 26 8 3 15 12 15 21
0 8 5 15 10 15 6 0 10 5 10 11 0 15 234 249 249 249 6 0 11 5 11 10 0 6 7 10
15 10 9 0 18 7 21 15 4 8 15 15 26 15 10 0 17 4 14 9 -3 5 5 12 19 15 14 4 25
11 25 16 0 6 11 10 25 10 14 0 24 5 22 12 -1 7 8 14 21 16 12 2 22 8 22 13 0
5 14 9 30 9 19 0 29 5 28 13 -2 7 9 13 25 15 15 2 27 8 27 13 0 5 18 9 40 9
27 0 39 4 38 13 -2 8 12 13 40 15 23 2 42 7 42 13 0 5 29 9 65 9 47 0 64 4 63
13 -2 9 48 12 227 12 179 0 229 -3 227 -12 -1 -9 16 -13 64 -13 38 0 63 -4 59
-9 -3 -6 14 -11 37 -13 28 -2 42 -7 41 -15 -2 -9 10 -13 37 -13 22 0 40 -4 40
-9 0 -5 12 -11 28 -13 15 -2 26 -8 25 -15 -2 -8 8 -13 27 -13 17 0 30 -4 30
-9 0 -5 10 -11 23 -13 12 -2 21 -9 20 -16 -2 -7 8 -12 22 -12 14 0 25 -4 25
-10 0 -5 11 -12 25 -16 14 -3 22 -10 19 -15 -3 -5 4 -9 14 -9 11 0 22 -7 26
-15 3 -8 12 -15 21 -15 8 0 15 -4 15 -10 0 -5 5 -10 10 -10 6 0 35 -24 66 -52
30 -29 62 -57 70 -61 14 -8 13 -11 -2 -28 -9 -10 -23 -19 -31 -19 -7 0 -13 -4
-13 -10 0 -5 -9 -10 -20 -10 -11 0 -20 -7 -20 -15 0 -8 -7 -15 -15 -15 -8 0
-15 -4 -15 -10 0 -5 -9 -10 -19 -10 -10 0 -21 -7 -25 -15 -3 -8 -12 -15 -21
-15 -8 0 -15 -4 -15 -10 0 -5 -7 -10 -15 -10 -9 0 -18 -7 -21 -15 -4 -8 -10
-15 -15 -15 -17 0 -49 -40 -49 -60 0 -11 -5 -20 -12 -20 -6 0 -8 -3 -5 -6 4
-4 13 -1 21 5 11 10 16 9 23 -2 4 -9 19 -17 33 -19 14 -2 24 -9 23 -16 -2 -7
9 -12 27 -12 17 0 30 -4 30 -9 0 -5 12 -11 28 -13 15 -2 26 -8 24 -15 -1 -8 9
-13 28 -13 16 0 30 -4 30 -9 0 -5 12 -11 28 -13 15 -2 26 -8 24 -15 -1 -8 9
-13 27 -13 16 0 31 -5 33 -11 3 -9 22 -15 51 -18 5 -1 5 -5 2 -11 -4 -6 7 -10
25 -10 25 0 31 -4 26 -15 -4 -11 2 -15 24 -15 17 0 30 -4 30 -9 0 -5 12 -11
28 -13 15 -2 26 -8 24 -15 -1 -8 9 -13 28 -13 16 0 30 -4 30 -9 0 -5 12 -11
28 -13 15 -2 26 -8 24 -15 -1 -8 9 -13 28 -13 16 0 30 -4 30 -9 0 -5 12 -11
28 -13 15 -2 26 -8 24 -15 -1 -8 9 -13 27 -13 17 0 31 -6 35 -15 3 -9 11 -15
18 -14 26 3 39 -1 33 -11 -4 -6 7 -10 25 -10 25 0 31 -4 26 -15 -4 -12 3 -15
30 -15 21 0 33 -4 29 -10 -4 -6 7 -10 24 -10 21 0 31 -5 31 -15 0 -10 10 -15
30 -15 17 0 30 -4 30 -10 0 -5 9 -10 20 -10 11 0 23 -7 26 -15 4 -8 17 -15 30
-15 13 0 24 -4 24 -10 0 -5 16 -10 35 -10 32 0 35 2 35 30 0 17 -4 30 -10 30
-6 0 -10 59 -10 158 0 89 -4 151 -9 144 -16 -25 -21 16 -21 159 0 91 -4 138
-10 134 -7 -4 -10 48 -10 149 0 120 -3 155 -12 154 -10 -2 -14 33 -16 145 -1
82 -7 147 -12 147 -5 0 -11 39 -12 88 -3 82 -4 87 -25 90 -16 2 -23 -2 -23
-12 0 -9 -8 -16 -20 -16 -11 0 -20 -4 -20 -10 0 -5 -9 -10 -21 -10 -12 0 -17
-4 -14 -11 4 -6 -2 -13 -14 -16 -12 -3 -21 -9 -21 -14 0 -5 -7 -9 -15 -9 -9 0
-18 -7 -21 -15 -4 -8 -12 -15 -19 -15 -7 0 -16 -7 -19 -16 -3 -8 -10 -13 -15
-10 -5 3 -14 -1 -21 -9 -7 -8 -19 -15 -26 -15 -8 0 -14 -7 -14 -15 0 -8 -7
-15 -15 -15 -8 0 -15 -4 -15 -9 0 -5 -8 -11 -17 -13 -12 -3 -53 31 -120 98
-56 56 -109 104 -117 107 -9 4 -16 11 -16 17 0 5 -7 10 -15 10 -8 0 -15 4 -15
9 0 5 -9 11 -21 14 -12 3 -18 10 -14 16 3 6 -2 11 -13 11 -11 0 -22 7 -26 15
-3 8 -12 15 -21 15 -8 0 -15 5 -15 10 0 6 -6 10 -14 10 -8 0 -16 7 -20 15 -3
8 -15 15 -26 15 -11 0 -20 5 -20 10 0 6 -7 10 -15 10 -9 0 -18 7 -21 15 -4 8
-15 15 -25 15 -10 0 -19 5 -19 10 0 6 -9 10 -20 10 -11 0 -23 7 -26 15 -4 8
-17 15 -30 15 -13 0 -24 5 -24 10 0 6 -9 10 -19 10 -11 0 -26 7 -35 15 -8 8
-26 15 -40 15 -16 0 -26 6 -26 15 0 10 -11 15 -35 15 -19 0 -35 4 -35 9 0 6
-17 11 -37 13 -24 2 -37 8 -35 16 1 8 -13 12 -48 12 -27 0 -50 4 -50 9 0 6
-24 11 -52 13 -36 2 -52 7 -50 16 1 9 -21 12 -88 12 -53 0 -90 4 -90 10 0 6
-78 10 -215 10 -137 0 -215 -4 -215 -10z"/>
<path d="M3928 2453 c-2 -88 -6 -117 -15 -116 -9 2 -13 -15 -13 -63 0 -38 -4
-63 -9 -59 -6 3 -11 -16 -13 -42 -2 -32 -7 -47 -15 -45 -9 1 -13 -11 -13 -39
0 -22 -4 -38 -9 -34 -5 3 -11 -9 -13 -27 -2 -20 -8 -32 -15 -30 -8 1 -13 -9
-13 -28 0 -16 -4 -30 -9 -30 -5 0 -11 -10 -13 -22 -2 -13 -9 -22 -16 -20 -7 1
-12 -9 -12 -23 0 -14 -4 -25 -10 -25 -5 0 -12 -11 -16 -25 -3 -14 -10 -22 -15
-19 -5 3 -9 -4 -9 -14 0 -11 -7 -22 -15 -26 -8 -3 -15 -12 -15 -21 0 -8 -4
-15 -10 -15 -5 0 -10 -5 -10 -11 0 -15 -234 -249 -249 -249 -6 0 -11 -4 -11
-10 0 -5 -7 -10 -15 -10 -9 0 -18 -7 -21 -15 -4 -8 -15 -15 -26 -15 -10 0 -17
-4 -14 -9 3 -5 -5 -12 -19 -15 -14 -4 -25 -11 -25 -16 0 -6 -11 -10 -25 -10
-14 0 -24 -5 -22 -12 1 -7 -8 -14 -20 -16 -13 -2 -23 -8 -23 -13 0 -5 -13 -9
-30 -9 -19 0 -29 -5 -27 -12 1 -8 -11 -14 -31 -16 -18 -2 -30 -8 -27 -13 4 -5
-12 -9 -34 -9 -28 0 -40 -4 -38 -12 1 -9 -13 -14 -40 -16 -24 -2 -43 -7 -43
-13 0 -5 -29 -9 -65 -9 -47 0 -64 -4 -63 -12 2 -10 -48 -13 -227 -13 -179 0
-229 3 -227 13 1 8 -15 12 -58 12 -33 0 -60 4 -60 9 0 6 -19 11 -42 13 -28 2
-42 7 -40 16 1 8 -11 12 -38 12 -22 0 -40 4 -40 9 0 5 -12 11 -27 13 -16 2
-27 8 -25 16 1 7 -9 12 -28 12 -16 0 -30 4 -30 9 0 5 -10 11 -22 13 -13 2 -22
9 -20 16 1 7 -9 12 -23 12 -14 0 -25 4 -25 10 0 5 -11 12 -25 16 -14 3 -22 10
-19 15 3 5 -4 9 -14 9 -11 0 -22 7 -26 15 -3 8 -12 15 -21 15 -8 0 -15 5 -15
10 0 6 -5 10 -11 10 -7 0 -21 10 -33 23 -12 12 -43 41 -68 64 -43 39 -45 43
-29 57 10 9 23 16 29 16 7 0 12 5 12 10 0 6 9 10 20 10 11 0 20 7 20 15 0 8 7
15 15 15 8 0 15 5 15 10 0 6 9 10 19 10 10 0 21 7 25 15 3 8 12 15 21 15 8 0
15 5 15 10 0 6 6 10 14 10 8 0 16 7 20 15 3 8 10 15 16 15 13 0 50 37 50 50 0
17 -37 48 -62 52 -13 2 -22 9 -20 16 1 7 -10 12 -28 12 -16 0 -30 4 -30 9 0 5
-12 11 -27 13 -16 2 -27 8 -25 16 1 7 -9 12 -28 12 -16 0 -30 4 -30 9 0 5 -14
11 -31 15 -17 3 -28 10 -24 16 4 6 -5 10 -20 10 -15 0 -33 7 -42 15 -8 8 -19
13 -24 9 -5 -3 -12 2 -15 10 -4 10 -18 16 -36 16 -23 0 -29 4 -24 15 4 11 -2
15 -24 15 -17 0 -30 4 -30 9 0 5 -12 11 -27 13 -16 2 -27 8 -25 16 1 7 -9 12
-28 12 -16 0 -30 4 -30 9 0 5 -12 11 -27 13 -16 2 -27 8 -25 16 1 7 -9 12 -28
12 -16 0 -30 4 -30 9 0 5 -12 11 -27 13 -16 2 -27 8 -25 16 1 7 -9 12 -28 12
-21 0 -30 5 -30 16 0 9 -8 14 -18 13 -30 -3 -43 1 -37 10 3 5 -7 11 -22 13
-16 2 -27 8 -25 16 1 8 -10 12 -34 12 -19 0 -33 4 -29 9 3 5 -7 11 -22 13 -16
2 -27 8 -25 16 1 8 -10 12 -34 12 -21 0 -33 4 -29 10 4 6 -5 10 -20 10 -14 0
-28 7 -31 15 -4 8 -17 15 -30 15 -13 0 -24 5 -24 10 0 6 -16 10 -35 10 -31 0
-35 -3 -35 -25 0 -14 5 -25 10 -25 6 0 10 -61 10 -162 0 -93 4 -157 9 -150 16
25 21 -16 21 -159 0 -91 4 -138 10 -134 6 4 10 -51 11 -157 0 -90 3 -157 6
-150 15 37 23 -16 23 -149 0 -94 4 -148 10 -144 5 3 10 -29 12 -82 3 -83 4
-88 25 -91 16 -2 23 2 23 12 0 9 8 16 20 16 11 0 20 5 20 10 0 6 9 10 21 10
12 0 17 4 14 11 -4 6 2 13 14 16 12 3 21 9 21 14 0 5 7 9 15 9 9 0 18 7 21 15
4 8 12 15 19 15 7 0 16 7 19 16 3 8 10 13 15 10 5 -3 14 1 21 9 7 8 19 15 26
15 8 0 14 7 14 15 0 8 7 15 15 15 8 0 15 4 15 9 0 5 8 11 18 13 11 3 52 -31
120 -99 57 -57 108 -103 113 -103 5 0 12 -7 15 -15 4 -8 12 -15 20 -15 8 0 14
-4 14 -9 0 -5 9 -11 21 -14 12 -3 18 -10 14 -16 -3 -6 2 -11 13 -11 11 0 22
-7 26 -15 3 -8 12 -15 21 -15 8 0 15 -4 15 -10 0 -5 7 -10 15 -10 9 0 18 -7
21 -15 4 -8 15 -15 25 -15 10 0 19 -4 19 -9 0 -5 9 -11 21 -14 12 -3 18 -10
14 -16 -4 -7 4 -11 19 -11 14 0 26 -4 26 -10 0 -5 9 -10 20 -10 11 0 23 -7 26
-15 4 -8 17 -15 30 -15 13 0 24 -4 24 -10 0 -5 9 -10 19 -10 11 0 26 -7 35
-15 8 -8 26 -15 40 -15 16 0 26 -6 26 -15 0 -10 11 -15 35 -15 19 0 35 -4 35
-9 0 -6 17 -11 38 -13 23 -2 36 -8 34 -15 -1 -9 13 -13 48 -13 27 0 50 -4 50
-9 0 -6 24 -11 53 -13 35 -2 51 -7 49 -15 -1 -10 21 -13 88 -13 53 0 90 -4 90
-10 0 -6 77 -10 210 -10 133 0 210 4 210 10 0 6 37 10 90 10 67 0 89 3 88 13
-2 8 14 13 50 15 28 2 52 7 52 13 0 5 23 9 50 9 35 0 49 4 48 13 -2 7 11 13
35 15 20 2 37 7 37 13 0 5 16 9 35 9 24 0 35 5 35 15 0 11 11 15 36 15 21 0
33 4 29 10 -4 6 7 13 24 16 17 4 31 10 31 15 0 5 11 9 24 9 13 0 26 7 30 15 3
8 15 15 26 15 11 0 20 5 20 10 0 6 11 10 25 10 14 0 24 5 23 12 -2 7 7 14 20
16 12 2 20 8 17 13 -4 5 3 9 15 9 11 0 23 7 26 15 4 8 12 15 20 15 8 0 14 3
14 8 0 7 30 25 63 38 9 3 17 13 17 20 0 8 7 14 15 14 8 0 15 5 15 10 0 6 6 10
14 10 8 0 16 7 20 15 3 8 10 15 15 15 12 0 247 234 254 255 4 8 11 15 17 15 5
0 10 7 10 15 0 8 5 15 10 15 6 0 10 7 10 15 0 8 6 15 13 15 12 0 28 24 43 63
3 9 10 17 15 17 5 0 9 6 9 14 0 8 7 16 15 20 8 3 15 15 15 26 0 11 4 20 9 20
5 0 11 9 14 21 3 12 10 18 16 14 7 -4 11 4 11 19 0 14 5 26 10 26 6 0 10 9 10
20 0 11 7 23 15 26 8 4 15 17 15 30 0 13 5 24 10 24 6 0 10 9 10 19 0 11 7 26
15 35 8 8 15 26 15 40 0 16 6 26 15 26 10 0 15 11 15 35 0 19 4 35 9 35 6 0
11 17 13 38 2 23 8 36 16 34 8 -1 12 13 12 48 0 27 4 50 9 50 6 0 11 24 13 53
2 35 7 51 16 49 9 -1 12 21 12 88 0 53 4 90 10 90 6 0 10 43 10 110 l0 110
-305 0 -304 0 -3 -117z"/>
</g>
</svg>
