<svg xmlns="http://www.w3.org/2000/svg" width="18.000000pt" height="18.000000pt" viewBox="0 0 512.000000 512.000000">
  <g transform="translate(0.000000,512.000000) scale(0.100000,-0.100000)" fill="#fff" stroke="none">
    <path
      d="M250 5092 c-235 -117 -324 -500 -178 -762 17 -30 35 -64 41 -76 13
-24 114 -104 133 -104 8 0 14 -4 14 -8 0 -4 10 -10 23 -12 31 -6 4527 -6 4552
0 11 3 22 7 25 10 3 3 21 13 40 23 41 21 89 64 109 98 83 137 112 235 110 364
-4 213 -101 394 -250 467 l-56 28 -2254 0 -2254 0 -55 -28z"/>
    <path
      d="M1718 3046 c-15 -8 -29 -12 -32 -8 -3 3 -6 0 -6 -6 0 -6 -9 -13 -19
-17 -33 -10 -110 -97 -145 -165 -93 -177 -93 -403 0 -580 35 -68 112 -155 145
-165 10 -4 19 -11 19 -17 0 -6 3 -9 6 -6 3 4 17 0 32 -8 23 -12 271 -14 1570
-14 1161 0 1542 3 1542 12 0 6 3 8 7 5 3 -4 17 0 30 8 13 9 23 13 23 10 0 -8
43 28 89 75 152 158 184 457 72 678 -49 97 -169 206 -213 194 -5 -1 -8 2 -8 8
0 6 -531 10 -1542 10 -1299 0 -1547 -2 -1570 -14z"/>
    <path
      d="M2786 971 c-113 -62 -187 -170 -227 -331 -45 -177 1 -391 111 -516
30 -34 120 -109 120 -100 0 4 13 0 29 -9 26 -13 154 -15 1012 -15 l982 0 56
28 c149 73 246 254 250 467 3 156 -54 308 -155 412 -28 28 -63 55 -78 59 -14
3 -26 9 -26 13 0 4 -6 9 -12 11 -7 2 -463 4 -1013 6 l-1000 3 -49 -28z"/>
  </g>
</svg>
