<svg xmlns="http://www.w3.org/2000/svg" width="18.000000pt" height="18.000000pt" viewBox="0 0 512.000000 512.000000">
  <g transform="translate(0.000000,512.000000) scale(0.100000,-0.100000)" fill="#fff" stroke="none">
    <path
      d="M2818 5104 c-16 -8 -28 -12 -28 -8 0 9 -90 -66 -120 -100 -42 -48
-79 -118 -101 -191 -78 -257 22 -555 221 -658 l52 -27 996 3 c548 2 1003 5
1010 7 6 2 12 7 12 11 0 4 12 10 26 13 38 10 123 101 161 171 146 276 60 651
-178 767 l-56 28 -984 -1 c-851 0 -988 -2 -1011 -15z"/>
    <path
      d="M1718 3046 c-15 -8 -29 -12 -32 -8 -3 3 -6 0 -6 -6 0 -6 -9 -13 -19
-17 -33 -10 -110 -97 -145 -165 -93 -177 -93 -403 0 -580 35 -68 112 -155 145
-165 10 -4 19 -11 19 -17 0 -6 3 -9 6 -6 3 4 17 0 32 -8 23 -12 271 -14 1570
-14 1011 0 1542 4 1542 10 0 6 3 9 8 8 44 -12 164 97 213 194 112 221 80 520
-72 678 -46 47 -89 83 -89 75 0 -3 -10 1 -23 10 -13 8 -27 12 -30 8 -4 -3 -7
-1 -7 5 0 9 -381 12 -1542 12 -1299 0 -1547 -2 -1570 -14z"/>
    <path
      d="M295 991 c-11 -5 -23 -7 -27 -4 -5 2 -8 -1 -8 -6 0 -6 -6 -11 -14
-11 -19 0 -120 -80 -133 -104 -6 -12 -24 -46 -41 -76 -146 -263 -56 -647 179
-762 l56 -28 2253 0 2253 0 56 28 c149 73 246 254 250 467 2 129 -27 227 -110
364 -20 34 -68 77 -109 98 -19 10 -37 20 -40 23 -3 3 -12 7 -20 10 -26 9
-4524 9 -4545 1z"/>
  </g>
</svg>
