<svg version="1.0" xmlns="http://www.w3.org/2000/svg" width="280.000000pt" height="280.000000pt" viewBox="0 0 280.000000 280.000000">
  <g transform="translate(0.000000,280.000000) scale(0.100000,-0.100000)" fill="#667686" stroke="none">
    <path
      d="M1105 2784 c-523 -95 -940 -486 -1071 -1006 -36 -142 -45 -409 -19
-555 45 -253 150 -472 319 -666 97 -111 172 -170 209 -164 22 3 43 -5 81 -31
132 -89 308 -160 478 -193 123 -24 347 -26 471 -4 263 46 505 172 697 365 112
111 196 232 265 382 44 96 53 108 75 108 35 0 110 40 132 70 42 58 35 151 -16
204 -32 35 -33 36 -28 114 5 96 -12 256 -40 372 -90 373 -352 701 -701 879
-107 54 -252 103 -376 126 -106 19 -366 19 -476 -1z m451 -109 c487 -85 887
-466 999 -951 22 -92 37 -261 30 -324 -7 -52 -9 -56 -48 -75 -58 -28 -87 -75
-87 -139 0 -60 26 -109 70 -134 16 -9 30 -24 30 -32 0 -9 -24 -65 -54 -126
-179 -363 -503 -613 -906 -700 -118 -25 -372 -25 -490 0 -114 25 -237 69 -342
123 -121 62 -168 98 -168 127 0 16 -27 50 -91 112 -204 198 -328 427 -374 688
-19 113 -19 306 0 418 90 510 497 919 1010 1013 99 19 315 18 421 0z m1098
-1436 c36 -28 36 -80 0 -108 -34 -27 -64 -27 -92 -1 -35 32 -33 74 4 108 31
27 54 28 88 1z"/>
    <path
      d="M1285 2116 c-89 -39 -123 -165 -65 -239 19 -24 20 -43 20 -584 0
-511 1 -561 18 -593 34 -69 113 -81 168 -26 l34 34 0 567 0 566 25 37 c31 46
34 121 6 172 -35 68 -132 98 -206 66z m112 -91 c70 -49 0 -160 -76 -120 -47
24 -55 74 -19 112 25 26 64 30 95 8z"/>
  </g>
</svg>
