<svg version="1.0" xmlns="http://www.w3.org/2000/svg" width="1106.000000pt" height="278.000000pt" viewBox="0 0 1106.000000 278.000000">
  <g transform="translate(0.000000,278.000000) scale(0.100000,-0.100000)" fill="#667686" stroke="none">
    <path
      d="M1075 2111 c-78 -20 -156 -90 -174 -158 -7 -24 -11 -189 -11 -445 l0
-408 130 0 130 0 0 220 0 220 90 0 90 0 0 -220 0 -220 130 0 130 0 0 415 c0
458 0 458 -63 523 -64 67 -94 76 -267 79 -85 1 -168 -2 -185 -6z m205 -156
c44 -23 50 -43 50 -159 l0 -106 -90 0 -90 0 0 103 c1 110 10 140 51 163 31 17
44 17 79 -1z"/>
    <path
      d="M1770 1611 l0 -511 130 0 130 0 0 220 0 220 133 0 c155 0 192 12 250
80 47 55 57 92 57 213 0 140 -34 206 -135 260 -38 21 -56 22 -302 25 l-263 3
0 -510z m390 344 c41 -21 50 -43 50 -125 0 -113 -22 -139 -117 -140 l-63 0 0
140 0 140 50 0 c28 0 64 -7 80 -15z"/>
    <path d="M2760 1610 l0 -510 130 0 130 0 0 510 0 510 -130 0 -130 0 0 -510z"/>
    <path
      d="M3835 2111 c-78 -20 -156 -90 -174 -158 -7 -24 -11 -189 -11 -445 l0
-408 130 0 130 0 0 220 0 220 90 0 90 0 0 -220 0 -220 130 0 130 0 0 415 c0
458 0 458 -63 523 -64 67 -94 76 -267 79 -85 1 -168 -2 -185 -6z m205 -156
c44 -23 50 -43 50 -159 l0 -106 -90 0 -90 0 0 103 c1 110 10 140 51 163 31 17
44 17 79 -1z"/>
    <path
      d="M5520 2010 l0 -110 -55 0 -55 0 0 -75 0 -75 55 0 55 0 0 -221 c0
-250 5 -279 62 -343 49 -56 101 -77 216 -83 l92 -6 0 75 c0 75 0 76 -28 81
-16 3 -39 15 -53 25 -24 20 -24 20 -27 246 l-3 226 55 0 56 0 0 75 0 75 -55 0
-55 0 0 110 0 110 -130 0 -130 0 0 -110z"/>
    <path d="M6950 1610 l0 -510 130 0 130 0 0 220 0 220 110 0 110 0 0 75 0 75
-110 0 -110 0 0 140 0 140 165 0 165 0 0 75 0 75 -295 0 -295 0 0 -510z"/>
    <path d="M7720 1610 l0 -510 130 0 130 0 0 510 0 510 -130 0 -130 0 0 -510z"/>
    <path
      d="M4530 1604 c0 -199 4 -310 12 -336 17 -56 79 -123 136 -145 57 -22
234 -25 270 -5 19 11 22 10 22 -3 0 -13 20 -15 130 -15 l130 0 0 400 0 400
-130 0 -130 0 0 -291 c0 -189 -4 -297 -11 -311 -6 -11 -26 -26 -44 -34 -41
-17 -73 -7 -104 32 -20 26 -21 36 -21 315 l0 289 -130 0 -130 0 0 -296z"/>
    <path
      d="M6227 1886 c-58 -21 -103 -61 -131 -118 -25 -51 -26 -56 -26 -256 0
-232 6 -263 62 -327 60 -68 103 -80 288 -80 126 0 164 3 202 18 56 22 123 92
138 146 5 20 10 128 10 241 0 195 -1 208 -24 256 -25 54 -68 93 -129 119 -48
20 -333 21 -390 1z m254 -165 l29 -29 0 -187 c0 -114 -4 -194 -11 -207 -6 -11
-26 -26 -44 -34 -41 -17 -73 -7 -104 32 -20 25 -21 38 -21 211 l0 185 29 29
c20 20 39 29 61 29 22 0 41 -9 61 -29z"/>
    <path
      d="M8317 1886 c-58 -21 -103 -61 -131 -118 -25 -51 -26 -56 -26 -256 0
-232 6 -263 62 -327 60 -68 103 -80 288 -80 126 0 164 3 202 18 56 22 123 92
138 146 5 20 10 128 10 241 0 195 -1 208 -24 256 -25 54 -68 93 -129 119 -48
20 -333 21 -390 1z m254 -165 l29 -29 0 -187 c0 -114 -4 -194 -11 -207 -6 -11
-26 -26 -44 -34 -41 -17 -73 -7 -104 32 -20 25 -21 38 -21 211 l0 185 29 29
c20 20 39 29 61 29 22 0 41 -9 61 -29z"/>
    <path
      d="M9040 1500 l0 -400 148 0 c81 0 178 5 217 10 48 7 71 7 73 0 5 -13
260 -13 360 0 134 18 252 104 310 228 27 56 27 60 30 310 l3 252 -130 0 -131
0 0 -285 c0 -310 -3 -329 -55 -353 -14 -7 -48 -12 -75 -12 l-50 0 0 325 0 325
-130 0 -130 0 0 -291 c0 -189 -4 -297 -11 -311 -14 -27 -69 -48 -124 -48 l-45
0 0 325 0 325 -130 0 -130 0 0 -400z"/>
  </g>
</svg>
