<svg version="1.0" xmlns="http://www.w3.org/2000/svg" width="14.000000pt" height="14.000000pt" viewBox="0 0 512.000000 512.000000">
  <g transform="translate(0.000000,512.000000) scale(0.100000,-0.100000)" fill="#eeeeee" stroke="none">
    <path
      d="M2020 5096 c0 -27 -30 -41 -110 -52 -27 -4 -58 -15 -69 -25 -13 -12
-35 -19 -60 -19 -29 0 -44 -6 -54 -20 -8 -12 -31 -24 -53 -27 -44 -7 -87 -27
-77 -36 3 -4 -7 -7 -23 -7 -21 0 -40 -10 -59 -30 -19 -19 -39 -30 -57 -30 -18
0 -28 -5 -28 -15 0 -8 -9 -15 -20 -15 -11 0 -20 -4 -20 -10 0 -5 -6 -10 -13
-10 -7 0 -22 -8 -33 -19 -12 -10 -35 -22 -52 -26 -17 -3 -31 -10 -31 -13 4
-23 -4 -32 -27 -32 -17 0 -28 -6 -31 -20 -3 -11 -14 -20 -24 -20 -11 0 -19 -4
-19 -10 0 -5 -7 -10 -15 -10 -8 0 -15 -9 -15 -20 0 -13 -7 -20 -19 -20 -11 0
-28 -11 -39 -25 -11 -14 -25 -25 -31 -25 -6 0 -11 -4 -11 -9 0 -6 -14 -18 -30
-28 -17 -9 -33 -25 -36 -35 -3 -10 -10 -18 -16 -18 -12 0 -78 -67 -78 -80 0
-6 -4 -10 -9 -10 -11 0 -91 -78 -91 -88 0 -4 -8 -15 -17 -24 -34 -33 -53 -55
-53 -61 0 -4 -8 -15 -17 -25 -47 -49 -80 -89 -86 -105 -4 -10 -11 -15 -17 -12
-5 3 -10 -3 -10 -13 0 -11 -7 -22 -15 -26 -8 -3 -15 -14 -15 -25 0 -11 -9 -25
-20 -31 -11 -6 -20 -20 -20 -31 0 -11 -6 -22 -14 -25 -8 -3 -17 -17 -20 -30
-4 -14 -10 -22 -15 -19 -5 2 -12 -6 -15 -20 -4 -14 -11 -25 -16 -25 -6 0 -10
-10 -10 -22 0 -30 -15 -52 -29 -44 -7 5 -11 -4 -11 -24 0 -18 -6 -33 -15 -36
-9 -4 -15 -19 -15 -35 0 -17 -6 -32 -15 -35 -8 -4 -15 -12 -15 -20 0 -8 -9
-23 -19 -33 -11 -11 -21 -32 -23 -48 -2 -16 -8 -27 -15 -25 -8 1 -13 -9 -13
-27 0 -16 -7 -36 -15 -45 -8 -8 -15 -28 -15 -45 0 -16 -7 -36 -15 -45 -8 -8
-15 -21 -15 -28 0 -30 -22 -88 -31 -83 -5 4 -9 -13 -9 -40 0 -30 -5 -47 -14
-51 -7 -3 -16 -23 -20 -45 -3 -21 -11 -39 -16 -39 -6 0 -10 -15 -11 -32 -1
-47 -14 -83 -27 -80 -8 1 -12 -22 -12 -78 0 -63 -3 -81 -17 -88 -15 -9 -17
-56 -21 -488 -6 -575 3 -914 24 -914 11 0 14 -18 14 -76 0 -59 4 -79 16 -89
10 -7 19 -32 22 -63 2 -29 8 -52 13 -52 4 0 11 -20 15 -45 3 -25 10 -43 14
-40 11 7 20 -21 20 -66 0 -28 4 -37 14 -33 10 4 15 -8 19 -42 3 -28 11 -51 21
-56 11 -6 16 -23 16 -53 0 -33 4 -45 15 -45 11 0 15 -11 15 -39 0 -25 5 -41
15 -45 8 -3 15 -17 15 -30 0 -18 4 -24 15 -20 11 5 15 -1 15 -20 0 -14 9 -34
20 -43 11 -10 20 -29 20 -44 0 -15 7 -29 15 -33 9 -3 15 -18 15 -35 0 -23 4
-29 15 -25 9 4 16 -3 21 -22 4 -16 13 -35 21 -42 7 -7 13 -22 13 -33 0 -10 4
-19 8 -19 10 0 50 -54 54 -72 2 -7 11 -16 21 -20 9 -4 17 -14 17 -23 0 -15 7
-27 41 -64 8 -10 18 -25 22 -34 3 -9 11 -17 17 -17 5 0 10 -7 10 -15 0 -12 18
-15 101 -15 85 0 100 2 95 15 -3 8 6 27 19 41 14 15 25 31 25 35 0 5 6 9 14 9
9 0 17 18 21 53 6 40 10 47 16 32 5 -12 7 9 7 55 -1 62 -2 68 -8 35 l-7 -40
-2 41 c-2 65 -12 104 -27 104 -8 0 -14 9 -14 20 0 11 -6 23 -14 26 -8 3 -19
19 -25 35 -5 16 -15 29 -20 29 -6 0 -11 11 -11 25 0 16 -6 25 -15 25 -8 0 -15
9 -15 19 0 10 -7 21 -15 25 -8 3 -15 14 -15 23 0 10 -9 26 -20 36 -11 9 -20
26 -20 37 0 11 -7 23 -15 26 -8 4 -15 19 -15 35 0 15 -7 32 -16 37 -8 5 -17
20 -18 35 -2 14 -10 33 -20 42 -9 9 -16 30 -16 46 0 17 -4 28 -9 24 -6 -3 -13
15 -17 41 -4 26 -10 41 -14 34 -10 -15 -20 11 -20 51 0 18 -4 28 -10 24 -14
-8 -30 38 -30 85 0 24 -5 40 -15 44 -11 4 -15 22 -15 71 0 37 -4 64 -9 61 -15
-10 -21 21 -21 105 0 62 -3 77 -14 73 -16 -6 -26 43 -26 136 0 37 -5 71 -11
77 -7 7 -13 73 -17 168 -3 90 -8 151 -13 143 -6 -8 -9 5 -9 35 0 27 4 46 9 43
4 -3 10 57 13 134 3 77 10 145 16 152 5 7 12 58 14 113 4 104 13 139 29 114 5
-9 9 23 9 79 0 73 3 94 15 98 11 5 15 21 15 59 0 59 8 88 21 79 5 -3 9 11 9
30 0 44 17 89 30 81 6 -3 10 5 10 19 0 33 10 57 21 50 5 -3 9 10 9 29 0 19 7
40 15 47 8 7 15 25 15 40 0 15 9 35 20 45 12 10 18 25 16 32 -3 7 3 22 14 33
11 11 20 31 20 45 0 14 7 28 15 31 8 4 15 16 15 28 0 21 16 48 53 87 9 11 17
26 17 34 0 8 7 15 15 15 8 0 15 9 15 19 0 28 11 52 21 45 5 -3 9 6 9 19 0 16
7 26 20 30 11 3 20 9 19 14 -4 21 2 33 16 33 8 0 15 7 15 15 0 9 13 29 30 45
16 16 30 34 30 40 0 5 9 15 20 22 11 7 20 17 20 22 0 10 21 33 124 138 36 37
66 72 66 78 0 5 6 10 14 10 8 0 26 14 39 30 14 17 31 30 37 30 6 0 13 7 16 15
4 8 11 15 18 15 6 0 22 14 36 30 14 17 32 30 41 30 9 0 25 11 35 25 10 14 27
25 37 25 11 0 21 9 24 20 3 13 14 20 28 20 12 0 28 7 35 15 7 8 19 15 27 15 8
0 11 5 8 10 -4 6 7 10 25 10 23 0 33 5 37 20 3 11 14 20 25 20 23 0 70 23 86
42 6 8 26 15 44 16 18 1 38 9 44 17 6 8 19 15 28 15 9 0 16 5 16 10 0 6 17 10
38 10 21 0 48 9 62 20 17 14 41 20 77 20 51 0 133 26 133 42 0 5 158 8 350 8
227 0 350 -4 350 -10 0 -5 9 -10 19 -10 11 0 21 -5 23 -12 3 -7 33 -14 77 -16
55 -3 78 -9 92 -23 11 -11 33 -19 49 -19 30 0 62 -14 88 -37 7 -7 30 -13 50
-13 28 0 46 -8 70 -30 18 -16 42 -30 53 -30 11 0 29 -9 41 -20 12 -11 32 -20
45 -20 20 0 28 -10 24 -32 0 -4 15 -10 33 -14 19 -3 43 -14 55 -25 11 -10 25
-19 31 -19 5 0 10 -4 10 -10 0 -5 5 -10 11 -10 11 0 82 -50 87 -62 2 -5 9 -8
15 -8 7 0 18 -9 25 -20 7 -12 24 -25 37 -30 14 -5 25 -16 25 -25 0 -8 4 -15 8
-15 13 0 92 -77 92 -90 0 -5 4 -9 10 -8 10 3 90 -79 90 -93 0 -5 7 -9 15 -9 8
0 15 -6 15 -13 0 -7 8 -19 18 -28 31 -28 82 -92 82 -105 0 -6 7 -14 15 -18 8
-3 15 -12 15 -21 0 -8 8 -23 18 -34 31 -34 52 -65 52 -78 0 -7 5 -12 12 -11 7
2 14 -10 18 -27 3 -16 10 -29 15 -27 6 1 11 -9 13 -23 2 -14 10 -25 18 -25 8
0 17 -13 20 -29 4 -17 12 -32 20 -35 8 -3 14 -20 14 -41 0 -24 4 -35 15 -35
10 0 15 -11 15 -35 0 -25 4 -33 14 -29 10 4 16 -5 21 -25 4 -17 11 -31 16 -31
5 0 9 -7 9 -15 0 -8 -9 -15 -20 -15 -11 0 -20 5 -20 10 0 7 -155 10 -445 10
-290 0 -445 -3 -445 -10 0 -5 -21 -10 -46 -10 -39 0 -51 -5 -75 -31 -16 -17
-29 -35 -29 -40 0 -5 -6 -9 -12 -9 -27 -1 -48 -74 -48 -164 0 -56 4 -85 10
-81 6 4 13 -7 16 -24 4 -17 10 -28 15 -25 5 3 9 1 9 -5 0 -14 45 -61 59 -61 6
0 11 -4 11 -10 0 -5 12 -10 26 -10 14 0 23 -4 20 -9 -17 -27 87 -31 729 -31
647 0 725 3 725 32 0 4 9 8 20 8 27 0 70 29 70 46 0 8 7 14 15 14 8 0 17 13
20 33 3 17 5 483 3 1035 l-3 1002 -29 25 c-16 14 -33 25 -38 25 -4 0 -8 6 -8
14 0 20 -23 26 -104 26 -67 0 -74 -2 -101 -30 -16 -16 -35 -30 -42 -30 -7 0
-13 -11 -13 -25 0 -16 -6 -25 -15 -25 -13 0 -15 -73 -15 -595 0 -342 -4 -595
-9 -595 -11 0 -21 25 -21 55 0 14 -9 29 -20 35 -11 6 -20 19 -20 29 0 11 -7
21 -15 25 -9 3 -15 18 -15 36 0 19 -4 29 -10 25 -6 -4 -13 7 -16 24 -4 17 -9
29 -13 28 -10 -3 -61 54 -61 68 0 7 -7 15 -15 19 -8 3 -15 15 -15 26 0 11 -7
20 -15 20 -8 0 -17 11 -21 24 -3 14 -12 27 -20 30 -8 3 -14 13 -14 21 0 9 -4
14 -9 10 -5 -3 -12 3 -16 14 -3 11 -12 22 -20 25 -8 3 -15 12 -15 21 0 8 -7
15 -15 15 -8 0 -15 4 -15 10 0 5 -16 24 -35 43 -19 19 -35 37 -35 40 0 10 -80
87 -90 87 -6 0 -10 7 -10 15 0 9 -9 19 -19 23 -11 4 -20 11 -19 17 0 5 -14 16
-31 25 -17 8 -31 22 -31 31 0 8 -16 21 -35 29 -19 8 -35 20 -35 27 0 7 -5 13
-11 13 -11 0 -84 55 -110 83 -9 9 -21 17 -28 17 -6 0 -11 5 -11 11 0 5 -4 8
-9 5 -4 -3 -16 3 -26 14 -10 11 -24 20 -31 20 -8 0 -19 9 -26 20 -7 11 -18 20
-25 20 -7 0 -13 5 -13 10 0 6 -7 10 -16 10 -8 0 -22 7 -30 15 -9 8 -25 15 -37
15 -25 1 -57 22 -57 38 0 12 -24 22 -56 22 -13 0 -33 9 -44 20 -11 11 -33 20
-48 20 -17 0 -38 10 -52 25 -18 19 -33 25 -68 25 -30 0 -49 6 -60 19 -11 12
-43 23 -89 31 -40 6 -73 16 -73 20 0 5 -9 12 -20 15 -11 3 -20 13 -20 21 0 12
-75 14 -520 14 l-520 0 0 -24z"/>
  </g>
</svg>
