<svg xmlns="http://www.w3.org/2000/svg" width="18.000000pt" height="18.000000pt" viewBox="0 0 512.000000 512.000000">
  <g transform="translate(0.000000,512.000000) scale(0.100000,-0.100000)" fill="#212121" stroke="none">
    <path
      d="M250 5092 c-149 -74 -245 -254 -249 -467 -2 -129 27 -227 110 -364
20 -34 68 -77 109 -98 19 -10 37 -20 40 -23 3 -3 14 -7 25 -10 25 -6 4521 -6
4553 0 12 2 22 8 22 12 0 4 6 8 14 8 19 0 120 80 133 104 6 12 24 46 41 76
146 263 56 647 -179 762 l-56 28 -2254 0 -2254 0 -55 -28z"/>
    <path
      d="M290 3050 c0 -6 -3 -9 -7 -8 -45 12 -165 -97 -214 -194 -112 -221
-80 -520 72 -678 46 -47 89 -83 89 -75 0 3 10 -1 23 -10 13 -8 27 -12 30 -8 4
3 7 1 7 -5 0 -9 381 -12 1543 -12 1298 0 1546 2 1569 14 15 8 29 12 32 8 3 -3
6 0 6 6 0 6 9 13 19 17 33 10 110 97 145 165 93 177 93 403 0 580 -35 68 -112
155 -145 165 -10 4 -19 11 -19 17 0 6 -3 9 -6 6 -3 -4 -17 0 -32 8 -23 12
-271 14 -1569 14 -1012 0 -1543 -4 -1543 -10z"/>
    <path
      d="M295 991 c-11 -5 -23 -7 -27 -4 -5 2 -8 0 -8 -5 0 -6 -12 -13 -26
-16 -38 -10 -123 -101 -161 -171 -146 -276 -60 -651 178 -767 l56 -28 982 0
c858 0 986 2 1012 15 16 9 29 13 29 9 0 -9 90 66 120 100 42 48 79 118 101
191 78 257 -22 555 -221 658 l-51 27 -982 -1 c-540 0 -991 -4 -1002 -8z"/>
  </g>
</svg>
