<svg xmlns="http://www.w3.org/2000/svg" width="18.000000pt" height="18.000000pt" viewBox="0 0 512.000000 512.000000">
  <g transform="translate(0.000000,512.000000) scale(0.100000,-0.100000)" fill="#212121" stroke="none">
    <path
      d="M250 5092 c-149 -74 -245 -254 -249 -467 -3 -156 54 -308 155 -412
28 -28 63 -55 78 -59 14 -3 26 -9 26 -13 0 -4 6 -9 13 -11 6 -2 461 -5 1009
-7 l996 -3 52 27 c113 58 190 170 231 333 45 177 -1 391 -111 516 -30 34 -120
109 -120 100 0 -4 -13 0 -29 9 -26 13 -154 15 -1013 15 l-983 0 -55 -28z"/>
    <path
      d="M290 3048 c0 -6 -3 -8 -7 -5 -3 4 -17 0 -30 -8 -13 -9 -23 -13 -23
-10 0 8 -43 -28 -89 -75 -152 -158 -184 -457 -72 -678 49 -97 169 -206 214
-194 4 1 7 -2 7 -8 0 -6 531 -10 1543 -10 1298 0 1546 2 1569 14 15 8 29 12
32 8 3 -3 6 0 6 6 0 6 9 13 19 17 33 10 110 97 145 165 93 177 93 403 0 580
-35 68 -112 155 -145 165 -10 4 -19 11 -19 17 0 6 -3 9 -6 6 -3 -4 -17 0 -32
8 -23 12 -271 14 -1569 14 -1162 0 -1543 -3 -1543 -12z"/>
    <path
      d="M293 990 c-13 -5 -23 -6 -23 -2 0 4 -4 3 -8 -3 -4 -5 -23 -18 -42
-28 -41 -21 -89 -64 -109 -98 -83 -137 -112 -235 -110 -364 4 -213 101 -394
250 -467 l56 -28 2253 0 2253 0 56 28 c235 115 325 499 179 762 -17 30 -35 64
-41 76 -13 24 -114 104 -133 104 -8 0 -14 4 -14 8 0 5 -6 10 -12 12 -32 8
-4535 8 -4555 0z"/>
  </g>
</svg>
