<svg version="1.0" xmlns="http://www.w3.org/2000/svg" width="14.000000pt" height="14.000000pt" viewBox="0 0 512.000000 512.000000">
  <g transform="translate(0.000000,512.000000) scale(0.100000,-0.100000)" fill="#eeeeee" stroke="none">
    <path
      d="M1362 5098 c-46 -11 -82 -22 -79 -24 2 -2 43 5 91 16 48 12 95 19
104 17 12 -3 11 -5 -5 -6 -42 -2 -250 -60 -329 -91 -483 -192 -842 -551 -1034
-1034 -31 -79 -89 -287 -91 -329 -1 -17 -3 -15 -8 8 -4 17 -8 -123 -9 -310 0
-308 1 -348 20 -428 11 -49 22 -86 24 -84 3 2 -5 42 -16 88 -11 46 -20 93 -19
104 0 11 11 -25 24 -80 65 -281 196 -545 381 -765 366 -437 939 -678 1502
-632 243 20 422 68 639 172 112 54 314 178 329 202 4 6 102 -85 219 -202 l213
-213 -19 -31 c-32 -52 -41 -99 -28 -153 11 -46 45 -81 643 -683 l631 -635
-633 630 c-568 567 -634 635 -648 678 -18 53 -9 112 23 165 l15 27 -20 -25
c-35 -42 -47 -111 -28 -167 14 -43 82 -114 648 -680 l633 -631 76 0 76 0 215
216 216 217 0 56 0 56 -642 642 c-353 352 -644 641 -646 641 -3 0 283 -289
635 -642 l640 -643 -630 627 c-346 344 -645 634 -664 643 -51 25 -121 22 -174
-8 l-45 -24 -206 206 c-113 113 -206 209 -206 213 0 4 20 34 44 65 260 346
392 816 345 1241 -24 224 -74 401 -170 602 -237 494 -683 850 -1224 975 -55
13 -91 24 -80 24 11 1 58 -8 104 -19 46 -11 86 -19 88 -16 2 2 -35 13 -84 24
-79 18 -121 20 -423 20 -297 -1 -344 -3 -418 -20z m698 -388 c288 -59 509
-178 716 -384 206 -207 323 -424 385 -716 32 -148 32 -400 1 -546 -63 -295
-181 -515 -386 -719 -207 -207 -426 -324 -720 -387 -146 -31 -398 -31 -546 1
-291 62 -510 180 -716 385 -274 274 -409 602 -409 991 0 389 135 717 409 991
240 239 481 354 861 408 73 10 304 -3 405 -24z"/>
  </g>
</svg>
