<svg xmlns="http://www.w3.org/2000/svg" width="1em" height="1em" viewBox="0 0 512.000000 512.000000">
  <g transform="translate(0.000000,512.000000) scale(0.100000,-0.100000)" fill="#667686" stroke="none">
    <path
      d="M4010 5110 c-52 -4 -804 -9 -1670 -10 -866 -1 -1672 -5 -1791 -9
l-216 -7 -66 -32 c-125 -62 -180 -167 -196 -372 -13 -165 3 -759 23 -850 42
-189 149 -315 324 -380 68 -26 305 -66 457 -78 157 -13 624 -7 1015 13 349 18
758 17 1520 -4 531 -15 1046 11 1255 65 251 63 403 244 445 530 8 52 10 183 7
379 -3 247 -7 311 -21 360 -60 206 -190 336 -383 385 -69 17 -110 20 -343 18
-146 -1 -308 -5 -360 -8z m517 -293 c179 -48 269 -140 320 -327 14 -51 18
-103 18 -240 0 -157 -2 -182 -23 -242 -46 -132 -130 -232 -241 -284 -77 -37
-175 -51 -411 -59 -291 -10 -3333 -14 -3462 -4 -246 18 -329 89 -384 326 -66
287 -52 709 26 813 l19 25 548 5 c301 3 1219 5 2038 5 1369 -1 1495 -2 1552
-18z"/>
    <path d="M3630 4397 c-96 -34 -108 -186 -18 -233 22 -12 49 -15 96 -12 59 4
68 7 93 37 50 60 45 135 -12 188 -30 27 -110 38 -159 20z"/>
    <path d="M788 4385 c-87 -48 -71 -201 22 -231 25 -8 403 -13 1251 -18 l1216
-7 31 26 c88 74 51 215 -61 229 -23 3 -580 8 -1237 11 -1057 4 -1198 3 -1222
-10z"/>
    <path d="M4134 4361 c-47 -29 -64 -59 -64 -112 0 -81 59 -129 157 -129 110 0
169 103 110 191 -27 41 -60 58 -124 65 -37 4 -55 1 -79 -15z"/>
    <path
      d="M490 3344 c-151 -21 -253 -66 -336 -149 -66 -66 -99 -124 -120 -214
-22 -98 -36 -365 -32 -603 4 -186 9 -236 26 -301 45 -163 136 -284 263 -350
140 -71 131 -70 1075 -68 l842 3 6 -183 c3 -101 8 -283 10 -405 l5 -221 -126
-7 c-116 -6 -130 -9 -161 -33 -58 -44 -62 -66 -62 -328 l0 -235 -872 0 c-837
0 -874 -1 -904 -19 -32 -20 -64 -74 -64 -111 0 -31 29 -88 54 -105 18 -13 335
-15 2471 -15 l2452 0 21 23 c51 55 50 139 -3 185 l-32 29 -549 6 c-302 4 -709
7 -904 7 l-355 0 0 202 c0 188 -2 207 -23 260 -39 97 -121 148 -237 148 -19 0
-35 1 -35 3 0 1 -3 181 -7 400 l-6 397 579 2 c318 1 719 2 889 3 223 0 325 4
365 14 180 44 297 168 349 373 60 234 58 625 -5 848 -48 168 -150 302 -274
359 -136 63 -48 60 -2057 61 -1246 0 -1840 3 -1859 10 -29 11 -325 22 -384 14z
m1952 -279 c986 3 1867 7 1958 8 158 2 167 1 220 -24 71 -33 112 -75 149 -152
50 -105 62 -168 68 -347 11 -358 -67 -534 -264 -595 -94 -30 -310 -34 -1510
-35 -1138 0 -1230 -1 -1495 -21 -337 -25 -679 -30 -788 -10 -181 33 -359 111
-434 191 -68 73 -73 102 -80 466 l-5 310 57 58 c68 70 139 119 217 150 51 21
59 22 85 9 24 -12 286 -13 1822 -8z m201 -1667 c4 -145 7 -327 7 -405 l0 -143
-88 0 -89 0 -1 133 c-1 72 -5 255 -8 405 l-7 272 90 0 90 0 6 -262z m302 -863
c4 -36 3 -115 0 -175 l-8 -110 -406 0 -406 0 3 164 3 164 57 5 c31 4 140 6
242 7 101 0 186 3 189 5 2 3 75 5 162 5 l157 0 7 -65z"/>
    <path d="M3639 2606 c-40 -23 -61 -63 -61 -117 0 -88 62 -137 161 -126 38 4
52 12 78 43 28 31 33 45 33 86 0 41 -5 54 -34 85 -30 33 -39 37 -92 40 -39 2
-68 -2 -85 -11z"/>
    <path d="M751 2574 c-59 -50 -60 -148 -2 -197 l29 -24 1195 -7 c1319 -8 1242
-12 1280 53 21 36 22 102 2 141 -33 64 44 60 -1274 60 l-1199 0 -31 -26z"/>
    <path d="M4221 2582 c-111 -19 -140 -186 -41 -237 38 -20 114 -19 146 1 54 36
70 122 34 181 -27 45 -79 66 -139 55z"/>
  </g>
</svg>
