<svg version="1.0" xmlns="http://www.w3.org/2000/svg"
 width="1em" height="1em" viewBox="0 0 512.000000 512.000000">
<g transform="translate(0.000000,512.000000) scale(0.100000,-0.100000)"
fill="#667686" stroke="none">
<path d="M4480 4613 c0 -7 -10 -13 -22 -13 -13 0 -32 -7 -42 -15 -11 -8 -26
-15 -33 -15 -36 0 -222 -147 -206 -163 2 -2 -9 -18 -25 -34 -15 -17 -26 -35
-24 -41 2 -6 -2 -13 -7 -17 -6 -3 -11 -15 -11 -26 0 -11 -4 -17 -10 -14 -6 3
-7 -1 -4 -9 5 -14 -33 -16 -360 -16 -340 0 -367 -1 -373 -17 -4 -10 -17 -35
-30 -55 -13 -21 -37 -64 -54 -95 -17 -32 -34 -60 -38 -63 -4 -3 -18 -29 -31
-57 -14 -29 -28 -53 -32 -53 -5 0 -8 -4 -8 -10 0 -5 -17 -38 -38 -72 -20 -35
-46 -81 -57 -103 -11 -22 -26 -46 -32 -53 -7 -7 -13 -20 -13 -28 0 -8 -4 -14
-8 -14 -5 0 -17 -18 -27 -40 -10 -22 -21 -40 -24 -40 -4 0 -12 -12 -18 -27 -7
-16 -25 -50 -42 -78 -16 -27 -40 -70 -53 -95 -13 -25 -29 -51 -36 -58 -6 -7
-12 -20 -12 -28 0 -8 -4 -14 -10 -14 -5 0 -10 -7 -10 -16 0 -8 -4 -12 -10 -9
-6 3 -7 -1 -4 -9 3 -9 1 -16 -5 -16 -6 0 -11 -7 -11 -15 0 -8 -4 -15 -9 -15
-5 0 -12 -13 -16 -30 -4 -16 -11 -30 -16 -30 -5 0 -11 -11 -15 -25 -3 -14 -10
-25 -15 -25 -5 0 -9 -6 -9 -14 0 -8 -6 -21 -13 -28 -6 -7 -21 -31 -32 -53 -11
-22 -26 -46 -32 -53 -7 -7 -13 -20 -13 -28 0 -8 -4 -14 -9 -14 -5 0 -11 -8
-14 -17 -3 -14 -7 -11 -17 12 -8 17 -31 57 -52 91 -21 34 -38 66 -38 73 0 6
-4 11 -8 11 -4 0 -13 12 -19 28 -13 31 -55 105 -64 112 -4 3 -9 15 -13 28 -4
12 -12 22 -17 22 -5 0 -9 5 -9 10 0 6 -11 28 -25 51 -14 22 -23 45 -19 51 4 7
3 8 -4 4 -7 -4 -12 -1 -12 8 0 9 -3 16 -7 16 -5 0 -13 10 -19 23 -15 33 -58
111 -64 117 -3 3 -14 23 -25 45 -11 22 -26 46 -32 53 -7 7 -13 20 -13 28 0 8
-3 14 -7 14 -5 0 -17 19 -28 43 -11 23 -26 48 -32 55 -7 7 -13 20 -13 28 0 8
-4 14 -9 14 -5 0 -12 12 -16 27 -3 15 -15 34 -25 43 -10 9 -22 28 -25 43 -4
15 -10 27 -14 27 -3 0 -15 17 -26 38 -11 20 -24 40 -29 43 -5 4 -6 14 -3 24 4
9 3 14 -3 10 -6 -3 -10 0 -10 9 0 8 -4 16 -9 18 -7 3 -61 94 -85 145 l-11 23
-356 0 -357 0 -16 34 c-9 19 -16 39 -16 45 0 6 -4 11 -9 11 -5 0 -12 9 -16 20
-8 26 -142 160 -161 160 -8 0 -14 4 -14 9 0 5 -13 12 -30 16 -16 4 -30 11 -30
16 0 5 -9 9 -19 9 -11 0 -21 5 -23 12 -7 20 -298 16 -298 -4 0 -4 -11 -8 -25
-8 -14 0 -25 -5 -25 -11 0 -6 -7 -9 -15 -5 -8 3 -15 1 -15 -4 0 -6 -7 -10 -15
-10 -8 0 -15 -4 -15 -8 0 -4 -13 -15 -29 -25 -42 -25 -113 -98 -136 -140 -11
-20 -23 -37 -27 -37 -5 0 -8 -9 -8 -20 0 -11 -4 -20 -8 -20 -5 0 -9 -6 -10
-12 -1 -7 -5 -32 -8 -55 -3 -24 -10 -43 -15 -43 -5 0 -9 -43 -9 -95 0 -52 4
-95 9 -95 5 0 12 -23 16 -50 4 -28 10 -48 14 -46 3 2 15 -15 26 -37 11 -23 29
-53 40 -67 42 -51 82 -90 94 -90 6 0 11 -4 11 -8 0 -5 17 -17 37 -28 21 -10
45 -26 53 -34 8 -9 23 -14 34 -12 10 2 23 -1 29 -7 6 -6 21 -11 33 -11 12 0
25 -6 27 -12 4 -10 8 -9 16 2 6 8 11 10 11 4 0 -8 23 -12 65 -12 36 0 65 4 65
9 0 5 16 9 35 9 19 0 35 5 35 11 0 7 11 8 31 4 22 -5 29 -4 25 4 -4 6 0 11 8
11 9 0 16 4 16 9 0 5 8 11 18 15 23 7 65 35 97 64 7 6 18 12 24 12 6 0 11 6
11 14 0 7 13 29 30 47 16 19 36 46 42 62 7 15 16 27 20 27 4 0 5 7 2 15 -4 8
-1 15 5 15 6 0 11 11 11 25 l0 25 269 0 269 0 16 -25 c9 -14 15 -29 12 -33 -3
-5 4 -15 15 -22 10 -8 19 -20 19 -27 0 -7 4 -13 9 -13 5 0 12 -13 16 -30 4
-16 10 -30 15 -30 5 0 12 -10 16 -22 4 -13 9 -25 13 -28 10 -8 31 -44 37 -62
4 -10 10 -18 15 -18 5 0 9 -7 9 -15 0 -8 5 -15 11 -15 6 0 9 -6 6 -12 -2 -7 4
-20 13 -28 9 -8 21 -26 25 -40 4 -14 10 -27 14 -30 9 -7 27 -38 53 -90 12 -25
31 -58 43 -75 30 -45 45 -76 40 -84 -2 -4 5 -14 16 -21 10 -8 19 -20 19 -27 0
-7 3 -13 8 -13 4 0 18 -25 32 -55 14 -30 28 -55 33 -55 4 0 7 -7 7 -15 0 -8 5
-15 11 -15 6 0 8 -7 5 -16 -3 -8 -2 -12 4 -9 6 3 10 -1 10 -9 0 -9 4 -16 9
-16 5 0 12 -13 16 -30 4 -16 10 -30 14 -30 3 0 15 -17 26 -37 11 -21 22 -40
25 -43 3 -3 18 -29 33 -57 l27 -53 -615 -2 -614 -3 -28 55 c-15 30 -33 61 -40
68 -7 7 -13 20 -13 28 0 8 -4 14 -9 14 -5 0 -13 9 -16 21 -4 11 -9 18 -12 16
-5 -5 -36 19 -78 60 -13 12 -25 19 -28 17 -6 -6 -48 16 -58 29 -3 5 -25 11
-48 14 -22 3 -41 10 -41 14 0 5 -15 9 -34 9 -19 0 -37 6 -39 13 -4 10 -6 10
-6 0 -1 -8 -14 -13 -32 -13 -16 0 -28 4 -25 8 3 5 -1 9 -9 9 -8 0 -15 -4 -15
-9 0 -4 -15 -8 -34 -8 -19 0 -37 -4 -40 -9 -5 -7 -56 -22 -72 -20 -4 0 -10 -3
-13 -8 -3 -4 -24 -17 -46 -28 -21 -11 -48 -29 -60 -41 -11 -11 -28 -23 -38
-27 -9 -4 -21 -17 -26 -29 -5 -13 -18 -33 -30 -45 -11 -12 -23 -33 -27 -47 -3
-14 -10 -26 -15 -26 -5 0 -9 -7 -9 -16 0 -8 -4 -12 -10 -9 -5 3 -10 -4 -10
-17 1 -37 -12 -88 -21 -88 -5 0 -9 -40 -9 -90 0 -49 4 -90 9 -90 4 0 11 -19
14 -43 15 -107 147 -267 267 -324 100 -47 114 -51 148 -47 17 2 34 -1 37 -6 8
-14 52 -13 61 1 4 7 22 9 45 6 22 -3 42 -1 45 4 3 5 16 9 30 9 13 0 24 4 24 8
0 4 23 16 50 27 28 11 50 23 50 28 0 5 8 6 17 3 10 -4 15 -4 11 -1 -3 4 18 30
48 60 30 29 54 57 54 63 0 6 6 15 13 19 16 11 47 67 47 87 0 9 5 16 10 16 6 0
10 7 10 15 0 14 71 15 620 15 403 -1 620 -4 620 -11 0 -10 -30 -61 -41 -69 -4
-3 -11 -18 -14 -33 -4 -15 -11 -27 -15 -27 -4 0 -11 -11 -14 -25 -4 -14 -11
-25 -16 -25 -6 0 -10 -7 -10 -15 0 -8 -4 -15 -9 -15 -5 0 -12 -13 -16 -30 -4
-16 -11 -30 -16 -30 -5 0 -9 -7 -9 -15 0 -8 -4 -15 -9 -15 -5 0 -13 -10 -17
-22 -4 -13 -9 -25 -13 -28 -3 -3 -15 -21 -25 -40 -11 -19 -30 -55 -44 -80 -13
-25 -29 -48 -36 -52 -6 -4 -8 -8 -4 -8 4 0 -1 -15 -12 -32 -11 -18 -23 -41
-26 -51 -4 -9 -10 -17 -14 -17 -4 0 -10 -10 -14 -23 -3 -12 -16 -33 -28 -47
-13 -13 -22 -26 -21 -27 4 -7 -11 -43 -18 -43 -5 0 -9 -6 -9 -14 0 -8 -6 -21
-13 -28 -6 -7 -21 -31 -32 -53 -11 -22 -28 -48 -37 -59 -10 -11 -21 -29 -24
-40 -4 -12 -9 -23 -13 -26 -3 -3 -15 -21 -25 -40 -11 -19 -30 -55 -44 -80 -13
-25 -28 -48 -34 -51 -5 -3 -10 -10 -10 -15 -2 -33 -9 -34 -282 -34 l-271 0
-12 26 c-7 15 -10 31 -7 35 3 5 0 9 -5 9 -6 0 -11 7 -11 15 0 8 -4 15 -9 15
-5 0 -12 8 -15 18 -3 9 -17 30 -31 46 -14 16 -25 35 -25 43 0 8 -4 12 -9 9 -5
-3 -22 8 -40 24 -17 17 -35 30 -40 30 -5 0 -16 6 -23 13 -23 20 -78 47 -99 47
-10 0 -19 5 -19 10 0 6 -13 10 -29 10 -17 0 -32 4 -35 9 -7 11 -166 12 -166 0
0 -5 -11 -9 -24 -9 -14 0 -28 -4 -31 -10 -3 -5 -17 -10 -30 -10 -13 0 -26 -4
-30 -9 -3 -6 -26 -20 -50 -32 -25 -12 -45 -26 -45 -31 0 -4 -5 -8 -11 -8 -25
0 -149 -158 -149 -190 0 -6 -4 -9 -9 -6 -5 3 -12 -16 -16 -44 -4 -27 -11 -50
-16 -50 -5 0 -9 -45 -9 -101 0 -56 4 -98 9 -95 5 3 12 -13 15 -37 3 -23 7 -48
8 -54 1 -7 5 -13 10 -13 4 0 8 -9 8 -20 0 -11 4 -20 9 -20 5 0 11 -8 15 -17
14 -42 120 -157 155 -168 12 -3 21 -11 21 -16 0 -5 7 -9 15 -9 8 0 15 -4 15
-10 0 -5 18 -13 40 -16 22 -4 40 -10 40 -15 0 -5 12 -9 26 -9 17 0 23 -4 18
-12 -5 -8 0 -7 11 2 11 9 16 10 11 2 -5 -9 13 -12 78 -12 51 0 86 4 86 10 0 6
14 10 30 10 17 0 30 5 30 10 0 6 8 10 17 10 57 0 249 150 268 209 3 12 10 21
15 21 5 0 11 14 15 30 4 17 11 30 16 30 5 0 9 7 9 15 0 13 47 15 360 15 313 0
360 2 360 15 0 8 4 15 9 15 5 0 12 12 16 27 3 15 10 30 13 33 6 5 16 22 61
105 9 16 18 32 21 35 3 3 14 22 25 43 11 20 23 37 26 37 4 0 10 13 14 30 4 16
10 30 15 30 4 0 11 11 14 25 4 14 11 25 16 25 6 0 10 6 10 14 0 8 3 16 8 18 4
2 15 18 24 36 10 17 26 47 35 65 10 17 21 34 26 35 4 2 7 10 7 17 0 8 6 20 13
27 6 7 21 31 32 53 11 22 37 68 58 103 20 34 37 67 37 72 0 6 4 10 9 10 5 0
11 10 15 23 3 12 14 31 24 42 10 11 17 26 14 33 -2 6 1 12 7 12 6 0 11 7 11
15 0 8 5 15 10 15 6 0 10 6 10 14 0 8 6 21 13 28 6 7 21 31 32 53 11 22 26 46
33 53 6 7 12 20 12 28 0 8 5 14 10 14 6 0 10 5 10 11 0 7 17 39 38 73 21 34
43 74 50 90 l13 28 19 -22 c11 -13 20 -29 20 -37 0 -7 4 -13 9 -13 5 0 12 -13
16 -30 4 -16 10 -30 14 -30 4 0 16 -18 27 -40 10 -22 22 -40 25 -40 4 0 10
-11 13 -25 4 -14 10 -25 15 -25 5 0 12 -14 16 -30 4 -17 11 -30 16 -30 5 0 9
-7 9 -15 0 -8 4 -15 10 -15 5 0 12 -11 16 -25 3 -14 10 -25 14 -25 5 0 11 -14
15 -30 4 -17 10 -28 15 -25 5 3 11 -8 15 -25 4 -16 11 -30 16 -30 5 0 9 -7 9
-15 0 -8 4 -15 9 -15 5 0 13 -10 17 -22 4 -13 9 -25 13 -28 3 -3 17 -27 31
-55 14 -27 27 -52 30 -55 3 -3 14 -22 24 -42 11 -21 23 -38 27 -38 4 0 10 -14
14 -30 4 -17 10 -30 15 -30 5 0 12 -10 16 -22 4 -13 9 -25 13 -28 6 -5 16 -23
60 -105 9 -16 19 -31 24 -33 4 -2 7 -10 7 -18 0 -8 4 -14 10 -14 5 0 15 -18
21 -40 7 -22 15 -40 19 -40 4 0 15 -17 26 -37 10 -21 21 -40 24 -43 5 -5 26
-41 57 -100 10 -19 21 -37 24 -40 4 -3 9 -15 13 -27 l7 -23 365 0 365 0 6 -30
c3 -16 9 -30 13 -30 4 0 11 -12 15 -27 3 -15 14 -34 24 -42 10 -9 21 -25 25
-37 3 -12 18 -26 31 -32 14 -6 25 -16 25 -21 0 -21 148 -111 181 -111 10 0 19
-5 21 -11 3 -8 42 -12 118 -12 135 -1 170 2 170 14 0 5 9 9 19 9 21 0 76 27
99 48 7 6 17 12 22 12 5 0 31 22 57 49 87 88 117 129 127 179 4 17 12 34 17
37 5 4 9 22 9 41 0 19 5 34 10 34 7 0 10 35 9 95 -1 52 -5 95 -10 95 -5 0 -9
11 -9 24 0 14 -5 28 -11 31 -6 4 -8 13 -5 21 3 8 2 14 -3 14 -8 0 -16 19 -19
43 0 5 -10 17 -21 26 -12 10 -21 21 -21 25 0 13 -66 83 -100 106 -12 8 -28 20
-34 25 -24 21 -115 65 -135 65 -11 0 -21 3 -21 8 0 4 -15 7 -32 6 -18 0 -39 4
-46 10 -9 7 -20 6 -34 -3 -17 -10 -22 -10 -29 0 -6 11 -12 11 -33 0 -13 -8
-36 -11 -50 -9 -14 3 -26 1 -26 -3 0 -5 -13 -9 -30 -9 -16 0 -30 -4 -30 -10 0
-5 -6 -10 -14 -10 -8 0 -21 -6 -28 -13 -7 -6 -30 -21 -51 -31 -20 -11 -37 -23
-37 -27 0 -4 -14 -12 -31 -18 -17 -6 -28 -14 -25 -19 5 -9 -27 -53 -70 -98
-11 -11 -18 -26 -16 -32 1 -5 -2 -13 -7 -17 -6 -3 -11 -15 -11 -26 0 -10 -4
-19 -10 -19 -5 0 -7 -7 -4 -15 6 -14 -27 -15 -271 -13 l-277 3 -22 40 c-11 22
-23 42 -26 45 -7 8 -29 43 -37 60 -4 8 -9 17 -12 20 -3 3 -17 28 -31 55 -14
28 -28 52 -31 55 -6 6 -19 37 -18 46 0 4 -4 10 -9 13 -21 14 -63 94 -57 109 3
9 3 13 -1 10 -7 -8 -34 16 -34 30 0 5 -7 15 -15 22 -8 7 -15 21 -15 31 0 11
-3 19 -8 19 -4 0 -19 21 -32 47 -14 27 -42 75 -62 109 -21 34 -38 66 -38 73 0
6 -4 11 -10 11 -5 0 -10 6 -10 14 0 8 -6 21 -12 28 -7 7 -22 31 -33 53 -11 22
-26 46 -32 53 -7 7 -13 19 -13 27 0 7 -3 15 -7 17 -8 3 -44 66 -67 115 -6 13
-14 23 -18 23 -5 0 -8 6 -8 14 0 8 -7 21 -15 29 -7 8 -17 25 -20 38 l-6 24
616 -3 c411 -1 615 1 615 8 0 5 5 10 10 10 6 0 9 -3 8 -7 -3 -13 48 -116 71
-142 12 -13 21 -30 21 -36 0 -7 9 -15 21 -18 11 -3 23 -15 26 -26 3 -12 10
-21 17 -21 6 0 23 -11 38 -25 14 -13 38 -27 52 -31 14 -3 26 -10 26 -15 0 -5
7 -9 15 -9 8 0 15 -4 15 -8 0 -4 8 -9 18 -10 53 -5 91 -15 87 -22 -2 -4 29 -8
70 -9 47 -1 75 2 75 8 0 6 5 11 11 11 5 0 7 -4 4 -10 -3 -5 -1 -10 4 -10 6 0
11 5 11 10 0 6 11 10 25 10 14 0 25 5 25 11 0 6 9 9 20 6 11 -3 20 -2 20 2 0
4 20 15 45 25 25 11 45 23 45 28 0 4 5 8 10 8 14 0 130 116 130 130 0 5 4 10
10 10 5 0 12 11 16 25 3 14 10 25 15 25 4 0 11 16 15 35 3 19 10 38 15 41 5 3
9 18 9 35 0 16 5 29 10 29 6 0 10 38 10 95 0 57 -4 95 -10 95 -5 0 -10 11 -10
25 0 14 -5 25 -11 25 -7 0 -9 10 -5 25 4 14 2 25 -4 25 -5 0 -10 7 -10 15 0 8
-4 15 -9 15 -5 0 -12 11 -15 25 -4 14 -11 25 -16 25 -6 0 -10 5 -10 10 0 6 -9
20 -20 32 -11 12 -20 28 -20 37 0 8 -3 12 -6 8 -6 -6 -16 0 -52 33 -10 8 -34
24 -55 35 -20 11 -37 23 -37 27 0 5 -9 8 -19 8 -11 0 -21 4 -23 10 -1 5 -31
13 -65 16 -35 4 -63 11 -63 15 0 5 -25 9 -55 9 -30 0 -55 -4 -55 -9 0 -4 -28
-11 -62 -15 -34 -3 -64 -10 -67 -14 -3 -5 -26 -18 -51 -30 -25 -12 -52 -29
-61 -39 -9 -10 -30 -26 -47 -35 -18 -9 -39 -33 -49 -52 -9 -20 -20 -36 -25
-36 -4 0 -8 -7 -8 -15 0 -8 -4 -15 -10 -15 -5 0 -10 -6 -10 -14 0 -8 -6 -21
-13 -28 -8 -7 -16 -24 -20 -38 l-6 -25 -625 0 c-616 0 -626 0 -620 20 4 10 13
25 20 33 8 7 14 20 14 28 0 8 4 14 8 14 5 0 17 17 28 38 10 20 29 53 40 72 12
20 35 60 51 90 17 30 38 71 49 90 10 19 22 37 25 40 4 3 9 15 13 28 4 12 12
22 17 22 5 0 9 7 9 15 0 8 4 15 10 15 5 0 13 12 16 27 4 15 13 34 21 41 7 7
13 20 13 28 0 8 4 14 8 14 5 0 16 18 26 40 10 22 23 46 29 53 12 12 28 40 64
107 10 19 20 37 23 40 3 3 14 22 24 43 11 20 23 37 27 37 4 0 10 13 14 28 3
15 14 34 24 42 11 7 17 19 14 27 -3 7 -1 13 5 13 5 0 12 10 16 23 3 12 14 32
25 44 11 12 23 33 27 47 3 14 10 26 14 26 4 0 10 9 13 20 5 19 14 20 282 20
272 0 276 0 270 -20 -4 -11 -2 -20 4 -20 6 0 11 -9 11 -20 0 -11 5 -20 11 -20
6 0 9 -6 6 -13 -3 -8 3 -20 14 -28 10 -7 19 -19 19 -25 0 -7 12 -22 26 -33 14
-11 23 -25 19 -31 -7 -11 22 -46 32 -37 3 3 12 0 19 -6 8 -7 20 -17 27 -22 7
-6 29 -19 50 -30 20 -11 37 -23 37 -27 0 -5 7 -8 15 -8 8 0 15 -4 15 -9 0 -4
11 -6 24 -4 13 3 27 0 30 -6 4 -6 25 -11 47 -11 21 0 39 -4 39 -10 0 -5 7 -10
15 -10 8 0 15 5 15 10 0 6 7 10 15 10 8 0 15 -4 15 -10 0 -5 9 -10 21 -10 11
0 17 5 14 10 -4 6 10 10 34 10 22 0 43 5 46 11 4 5 21 8 38 5 18 -3 26 -3 19
0 -8 4 11 19 48 37 58 30 115 79 187 160 17 19 29 37 27 40 -2 2 2 16 9 30 8
15 17 24 20 21 3 -4 6 2 6 12 1 34 13 84 21 84 4 0 8 43 9 95 1 61 -2 95 -9
95 -5 0 -10 10 -10 22 0 51 -58 167 -109 219 -14 14 -38 40 -54 58 -15 17 -34
31 -42 31 -8 0 -15 4 -15 8 0 5 -18 17 -40 28 -22 10 -40 22 -40 26 0 4 -8 7
-17 7 -40 1 -93 14 -93 22 0 15 -157 11 -163 -3 -4 -10 -8 -9 -16 2 -7 10 -11
11 -11 3z"/>
</g>
</svg>
