<svg version="1.0" xmlns="http://www.w3.org/2000/svg" width="1em" height="1em" viewBox="0 0 512.000000 512.000000">
  <g transform="translate(0.000000,512.000000) scale(0.100000,-0.100000)" fill="#667686" stroke="none">
    <path
      d="M593 4688 c1 -9 -14 -14 -45 -16 -27 -2 -48 -7 -48 -13 0 -5 -13 -9
-30 -9 -18 0 -29 -5 -28 -12 2 -6 -6 -14 -17 -16 -11 -2 -24 -11 -28 -18 -5
-8 -12 -12 -18 -9 -5 4 -12 -1 -15 -9 -3 -9 -10 -16 -15 -16 -14 0 -109 -102
-109 -117 0 -7 -4 -13 -9 -13 -5 0 -11 -9 -14 -21 -3 -12 -10 -18 -16 -14 -7
4 -11 -5 -11 -24 0 -17 -4 -31 -9 -31 -6 0 -11 -17 -13 -37 -2 -24 -8 -37 -16
-35 -9 1 -12 -352 -12 -1743 0 -1391 3 -1744 13 -1742 7 1 13 -12 15 -35 2
-21 7 -38 13 -38 5 0 9 -14 9 -31 0 -19 4 -28 11 -24 6 4 13 -2 16 -14 3 -12
9 -21 14 -21 5 0 9 -6 9 -13 0 -15 95 -117 109 -117 5 0 11 -7 15 -15 3 -8 12
-15 21 -15 8 0 15 -4 15 -9 0 -5 10 -11 23 -13 12 -2 21 -9 20 -16 -2 -8 10
-12 33 -12 19 0 33 -4 29 -9 -3 -6 16 -11 42 -13 32 -2 47 -7 46 -15 -2 -10
396 -13 1967 -13 1571 0 1969 3 1967 13 -1 8 13 13 41 15 23 2 42 7 42 13 0 5
16 9 35 9 22 0 34 4 32 12 -1 7 8 14 21 16 12 2 22 8 22 13 0 5 6 9 14 9 8 0
16 7 20 15 3 8 10 15 16 15 15 0 110 102 110 117 0 7 4 13 9 13 5 0 11 9 14
21 3 12 10 18 16 14 7 -4 11 5 11 24 0 17 4 31 9 31 6 0 11 17 13 38 2 23 8
36 16 35 9 -2 12 351 12 1743 0 1025 -4 1743 -9 1740 -12 -7 -21 18 -21 55 0
18 -4 28 -10 24 -6 -4 -10 7 -10 24 0 21 -5 31 -15 31 -8 0 -15 7 -15 15 0 18
-9 30 -67 89 -33 34 -40 45 -30 55 9 10 8 11 -6 5 -11 -4 -25 0 -37 11 -11 10
-20 14 -20 9 0 -5 -6 -2 -13 7 -7 9 -21 19 -32 21 -11 2 -19 10 -18 16 2 7 -9
12 -27 12 -17 0 -30 4 -30 9 0 6 -21 11 -47 13 -32 2 -47 7 -46 16 2 9 -396
12 -1967 12 -1571 0 -1969 -3 -1967 -12z m3897 -414 c0 -8 4 -13 10 -9 5 3 23
-9 40 -26 l30 -32 0 -396 0 -396 -2010 0 -2010 0 0 398 0 398 25 24 c13 14 31
25 40 25 8 0 15 7 15 15 0 13 221 15 1930 15 1741 0 1930 -2 1930 -16z m-2860
-1714 l0 -450 -540 0 -540 0 0 434 c0 239 -3 441 -6 450 -6 14 46 16 540 16
l546 0 0 -450z m1486 434 c-3 -9 -6 -211 -6 -450 l0 -434 -540 0 -540 0 0 438
c0 327 -3 441 -12 450 -9 9 112 12 546 12 505 0 558 -2 552 -16z m1484 -431
c0 -300 -4 -453 -11 -463 -8 -11 -12 -12 -16 -2 -6 16 -1033 18 -1033 2 0 -5
-4 -10 -10 -10 -7 0 -10 160 -10 460 l0 460 540 0 540 0 0 -447z m-2972 -1326
l-3 -458 -498 1 c-381 0 -502 3 -513 13 -27 25 -39 36 -51 51 -9 11 -13 121
-15 435 l-3 421 535 2 c294 2 538 0 543 -3 4 -3 6 -211 5 -462z m2970 96 c3
-366 0 -439 -19 -428 -5 4 -9 -8 -9 -24 0 -30 -29 -71 -50 -71 -6 0 -13 -7
-16 -15 -5 -13 -70 -15 -495 -15 l-489 0 0 463 0 462 537 -2 538 -3 3 -367z
m-1486 -93 l-2 -460 -540 0 -540 0 -2 460 -3 460 545 0 545 0 -3 -460z"/>
  </g>
</svg>
