<svg version="1.0" xmlns="http://www.w3.org/2000/svg" width="1em" height="1em" viewBox="0 0 512.000000 512.000000">
  <g transform="translate(0.000000,512.000000) scale(0.100000,-0.100000)" fill="#667686" stroke="none">
    <path
      d="M2520 4780 c0 -5 -11 -10 -25 -10 -14 0 -25 -5 -25 -11 0 -7 -10 -9
-24 -7 -19 4 -23 1 -18 -10 4 -11 1 -14 -10 -9 -12 4 -14 1 -11 -14 3 -10 0
-19 -6 -19 -6 0 -11 -9 -11 -20 0 -11 -4 -20 -10 -20 -7 0 -10 -207 -10 -600
0 -393 3 -600 10 -600 6 0 10 -9 10 -20 0 -11 5 -20 11 -20 6 0 9 -9 6 -19 -3
-15 -1 -18 11 -14 11 5 14 2 10 -9 -5 -11 -1 -14 18 -10 14 2 24 0 24 -7 0 -6
14 -11 31 -11 17 0 28 -4 24 -10 -4 -6 10 -10 35 -10 25 0 39 4 35 10 -4 6 7
10 24 10 17 0 31 5 31 11 0 7 10 9 24 7 19 -4 23 -1 18 10 -4 11 -1 14 10 9
12 -4 14 -1 11 14 -3 10 0 19 6 19 6 0 11 9 11 20 0 11 5 20 10 20 7 0 10 162
10 465 l0 465 25 0 c14 0 25 -4 25 -10 0 -6 27 -10 60 -10 33 0 60 -4 60 -10
0 -5 20 -10 45 -10 25 0 45 -4 45 -10 0 -5 16 -10 35 -10 19 0 35 -4 35 -10 0
-5 16 -10 35 -10 19 0 35 -4 35 -10 0 -5 11 -10 25 -10 14 0 25 -4 25 -10 0
-5 11 -10 25 -10 14 0 25 -4 25 -10 0 -5 11 -10 25 -10 14 0 25 -4 25 -10 0
-5 12 -10 26 -10 14 0 23 -4 19 -10 -4 -6 5 -10 19 -10 14 0 26 -4 26 -10 0
-5 7 -10 15 -10 8 0 15 -4 15 -10 0 -5 9 -10 20 -10 11 0 20 -4 20 -10 0 -5 7
-10 15 -10 8 0 15 -4 15 -10 0 -5 9 -10 20 -10 11 0 20 -4 20 -10 0 -5 7 -10
15 -10 8 0 15 -4 15 -10 0 -5 7 -10 15 -10 8 0 15 -4 15 -10 0 -5 7 -10 15
-10 8 0 15 -4 15 -10 0 -5 5 -10 11 -10 16 0 41 -29 34 -40 -3 -5 0 -7 9 -4 8
3 24 -3 36 -13 58 -48 81 -73 75 -83 -4 -6 1 -7 11 -3 13 5 16 3 11 -10 -4
-12 -2 -14 10 -10 12 5 15 2 10 -10 -4 -12 -2 -14 10 -10 12 5 15 2 10 -10 -4
-12 -2 -14 10 -10 12 5 15 2 10 -10 -4 -12 -2 -14 10 -10 12 5 15 2 10 -10 -4
-12 -2 -14 10 -10 13 5 15 2 10 -11 -4 -10 -3 -15 3 -11 10 6 35 -17 83 -75
10 -12 16 -28 13 -36 -3 -9 -1 -12 4 -9 11 7 40 -18 40 -34 0 -6 5 -11 10 -11
6 0 10 -7 10 -15 0 -8 5 -15 10 -15 6 0 10 -7 10 -15 0 -8 5 -15 10 -15 6 0
10 -7 10 -15 0 -8 5 -15 10 -15 6 0 10 -9 10 -20 0 -11 5 -20 10 -20 6 0 10
-7 10 -15 0 -8 5 -15 10 -15 6 0 10 -9 10 -20 0 -11 5 -20 10 -20 6 0 10 -7
10 -15 0 -8 5 -15 10 -15 6 0 10 -12 10 -26 0 -14 4 -23 10 -19 6 4 10 -5 10
-19 0 -14 5 -26 10 -26 6 0 10 -11 10 -25 0 -14 5 -25 10 -25 6 0 10 -11 10
-25 0 -14 5 -25 10 -25 6 0 10 -11 10 -25 0 -14 5 -25 10 -25 6 0 10 -16 10
-35 0 -19 5 -35 10 -35 6 0 10 -16 10 -35 0 -19 5 -35 10 -35 6 0 10 -20 10
-45 0 -25 5 -45 10 -45 6 0 10 -27 10 -60 0 -33 4 -60 10 -60 6 0 10 -87 10
-240 0 -153 -4 -240 -10 -240 -6 0 -10 -27 -10 -60 0 -33 -4 -60 -10 -60 -5 0
-10 -20 -10 -45 0 -25 -4 -45 -10 -45 -5 0 -10 -16 -10 -35 0 -19 -4 -35 -10
-35 -5 0 -10 -16 -10 -35 0 -19 -4 -35 -10 -35 -5 0 -10 -11 -10 -25 0 -14 -4
-25 -10 -25 -5 0 -10 -11 -10 -25 0 -14 -4 -25 -10 -25 -5 0 -10 -11 -10 -25
0 -14 -4 -25 -10 -25 -5 0 -10 -9 -10 -20 0 -11 -4 -20 -10 -20 -5 0 -10 -12
-10 -26 0 -14 -4 -23 -10 -19 -5 3 -10 -3 -10 -14 0 -12 -4 -21 -10 -21 -5 0
-10 -9 -10 -20 0 -11 -4 -20 -10 -20 -5 0 -10 -7 -10 -15 0 -8 -4 -15 -10 -15
-5 0 -10 -9 -10 -20 0 -11 -4 -20 -10 -20 -5 0 -10 -7 -10 -15 0 -8 -4 -15
-10 -15 -5 0 -10 -7 -10 -15 0 -8 -4 -15 -10 -15 -5 0 -10 -7 -10 -15 0 -8 -4
-15 -10 -15 -5 0 -10 -5 -10 -11 0 -16 -29 -41 -40 -34 -5 3 -7 0 -4 -9 3 -8
-3 -24 -13 -36 -48 -58 -73 -81 -83 -75 -6 4 -7 -1 -3 -11 5 -13 3 -16 -10
-11 -12 4 -14 2 -10 -10 5 -12 2 -15 -10 -10 -12 4 -14 2 -10 -10 5 -12 2 -15
-10 -10 -12 4 -14 2 -10 -10 5 -12 2 -15 -10 -10 -12 4 -14 2 -10 -10 5 -12 2
-15 -10 -10 -12 4 -14 2 -10 -10 5 -13 2 -15 -11 -10 -10 4 -15 3 -11 -3 6
-10 -17 -35 -75 -83 -12 -10 -28 -16 -36 -13 -9 3 -12 1 -9 -4 7 -11 -18 -40
-34 -40 -6 0 -11 -4 -11 -10 0 -5 -7 -10 -15 -10 -8 0 -15 -4 -15 -10 0 -5 -7
-10 -15 -10 -8 0 -15 -4 -15 -10 0 -5 -7 -10 -15 -10 -8 0 -15 -4 -15 -10 0
-5 -9 -10 -20 -10 -11 0 -20 -4 -20 -10 0 -5 -7 -10 -15 -10 -8 0 -15 -4 -15
-10 0 -5 -9 -10 -20 -10 -11 0 -20 -4 -20 -10 0 -5 -7 -10 -15 -10 -8 0 -15
-4 -15 -10 0 -5 -12 -10 -26 -10 -14 0 -23 -4 -19 -10 4 -6 -5 -10 -19 -10
-14 0 -26 -4 -26 -10 0 -5 -11 -10 -25 -10 -14 0 -25 -4 -25 -10 0 -5 -11 -10
-25 -10 -14 0 -25 -4 -25 -10 0 -5 -11 -10 -25 -10 -14 0 -25 -4 -25 -10 0 -5
-16 -10 -35 -10 -19 0 -35 -4 -35 -10 0 -5 -16 -10 -35 -10 -19 0 -35 -4 -35
-10 0 -5 -20 -10 -45 -10 -25 0 -45 -4 -45 -10 0 -6 -27 -10 -60 -10 -33 0
-60 -4 -60 -10 0 -6 -87 -10 -240 -10 -153 0 -240 4 -240 10 0 6 -27 10 -60
10 -33 0 -60 4 -60 10 0 6 -20 10 -45 10 -25 0 -45 5 -45 10 0 6 -16 10 -35
10 -19 0 -35 5 -35 10 0 6 -16 10 -35 10 -19 0 -35 5 -35 10 0 6 -11 10 -25
10 -14 0 -25 5 -25 10 0 6 -11 10 -25 10 -14 0 -25 5 -25 10 0 6 -11 10 -25
10 -14 0 -25 5 -25 10 0 6 -12 10 -26 10 -14 0 -23 4 -19 10 4 6 -5 10 -20 10
-15 0 -24 4 -20 10 3 6 -3 10 -14 10 -12 0 -21 5 -21 10 0 6 -9 10 -20 10 -11
0 -20 5 -20 10 0 6 -7 10 -15 10 -8 0 -15 5 -15 10 0 6 -9 10 -20 10 -11 0
-20 5 -20 10 0 6 -7 10 -15 10 -8 0 -15 5 -15 10 0 6 -7 10 -15 10 -8 0 -15 5
-15 10 0 6 -7 10 -15 10 -8 0 -15 5 -15 10 0 6 -5 10 -11 10 -16 0 -41 29 -34
40 3 5 0 7 -9 4 -8 -3 -24 3 -36 13 -58 48 -81 73 -75 83 4 6 -1 7 -11 3 -13
-5 -16 -3 -11 10 4 12 2 14 -10 10 -12 -5 -15 -2 -10 10 4 12 2 14 -10 10 -12
-5 -15 -2 -10 10 4 12 2 14 -10 10 -12 -5 -15 -2 -10 10 4 12 2 14 -10 10 -12
-5 -15 -2 -10 10 4 12 2 14 -10 10 -13 -5 -15 -2 -10 11 4 10 3 15 -3 11 -10
-6 -35 17 -83 75 -10 12 -16 28 -13 36 3 9 1 12 -4 9 -11 -7 -40 18 -40 34 0
6 -4 11 -10 11 -5 0 -10 7 -10 15 0 8 -4 15 -10 15 -5 0 -10 7 -10 15 0 8 -4
15 -10 15 -5 0 -10 7 -10 15 0 8 -4 15 -10 15 -5 0 -10 9 -10 20 0 11 -4 20
-10 20 -5 0 -10 7 -10 15 0 8 -4 15 -10 15 -5 0 -10 9 -10 20 0 11 -4 20 -10
20 -5 0 -10 7 -10 15 0 8 -4 15 -10 15 -5 0 -10 12 -10 26 0 14 -4 23 -10 19
-6 -4 -10 5 -10 19 0 14 -4 26 -10 26 -5 0 -10 11 -10 25 0 14 -4 25 -10 25
-5 0 -10 11 -10 25 0 14 -4 25 -10 25 -5 0 -10 11 -10 25 0 14 -4 25 -10 25
-5 0 -10 16 -10 35 0 19 -4 35 -10 35 -5 0 -10 16 -10 35 0 19 -4 35 -10 35
-5 0 -10 20 -10 45 0 25 -4 45 -10 45 -6 0 -10 27 -10 60 0 33 -4 60 -10 60
-6 0 -10 87 -10 241 0 157 3 238 10 234 6 -4 10 18 10 59 0 37 4 66 10 66 6 0
10 20 10 45 0 25 5 45 10 45 6 0 10 16 10 35 0 19 5 35 10 35 6 0 10 14 10 30
0 17 5 30 10 30 6 0 10 14 10 30 0 17 5 30 10 30 6 0 10 11 10 25 0 14 5 25
10 25 6 0 10 11 10 25 0 14 5 25 10 25 6 0 10 9 10 20 0 11 5 20 10 20 6 0 10
9 10 20 0 11 5 20 10 20 6 0 10 9 10 20 0 11 5 20 10 20 6 0 10 9 10 20 0 11
5 20 10 20 6 0 10 7 10 15 0 8 5 15 10 15 6 0 10 9 10 20 0 11 5 20 10 20 6 0
10 7 10 15 0 8 5 15 10 15 6 0 10 7 10 15 0 8 5 15 10 15 6 0 10 7 10 15 0 8
5 15 10 15 6 0 10 5 10 11 0 16 28 41 39 35 5 -3 7 3 4 14 -3 11 0 20 6 20 6
0 11 5 11 10 0 17 69 82 80 75 6 -4 7 1 3 11 -5 13 -3 16 10 11 12 -4 14 -2
10 10 -5 12 -2 15 10 10 12 -4 14 -2 10 10 -5 12 -2 15 9 10 12 -4 14 -1 11
14 -3 10 0 19 6 19 6 0 11 7 11 15 0 8 5 15 10 15 6 0 10 35 10 85 0 50 -4 85
-10 85 -5 0 -10 5 -10 10 0 19 -69 80 -90 80 -12 0 -18 5 -15 10 4 6 -18 10
-59 10 -37 0 -66 -4 -66 -10 0 -5 -9 -10 -20 -10 -11 0 -20 -5 -20 -11 0 -6
-9 -9 -19 -6 -15 3 -18 1 -14 -11 5 -11 2 -14 -10 -9 -12 4 -14 2 -10 -10 5
-12 2 -15 -10 -10 -12 4 -14 2 -10 -10 5 -12 2 -15 -10 -10 -12 4 -14 2 -10
-10 5 -12 2 -15 -10 -10 -11 4 -14 2 -10 -9 3 -8 -4 -23 -16 -33 -11 -10 -21
-21 -21 -25 0 -13 -50 -57 -59 -52 -5 4 -7 -3 -4 -14 3 -11 0 -20 -6 -20 -6 0
-11 -5 -11 -11 0 -16 -28 -41 -39 -35 -5 3 -7 -3 -4 -14 3 -11 0 -20 -6 -20
-6 0 -11 -7 -11 -15 0 -8 -4 -15 -10 -15 -5 0 -10 -7 -10 -15 0 -8 -4 -15 -10
-15 -5 0 -10 -7 -10 -15 0 -8 -4 -15 -10 -15 -5 0 -10 -9 -10 -20 0 -11 -4
-20 -10 -20 -5 0 -10 -7 -10 -15 0 -8 -4 -15 -10 -15 -5 0 -10 -7 -10 -15 0
-8 -4 -15 -10 -15 -5 0 -10 -9 -10 -20 0 -11 -4 -20 -10 -20 -5 0 -10 -9 -10
-20 0 -11 -4 -20 -10 -20 -5 0 -10 -9 -10 -20 0 -11 -4 -20 -10 -20 -5 0 -10
-9 -10 -20 0 -11 -4 -20 -10 -20 -5 0 -10 -12 -10 -26 0 -14 -4 -23 -10 -19
-6 4 -10 -5 -10 -19 0 -14 -4 -26 -10 -26 -5 0 -10 -14 -10 -31 0 -17 -4 -28
-10 -24 -6 4 -10 -7 -10 -24 0 -17 -4 -31 -10 -31 -5 0 -10 -13 -10 -30 0 -16
-4 -30 -10 -30 -5 0 -10 -16 -10 -36 0 -21 -4 -33 -10 -29 -6 4 -10 -10 -10
-34 0 -23 -4 -41 -10 -41 -5 0 -10 -20 -10 -45 0 -25 -4 -45 -10 -45 -5 0 -10
-25 -10 -55 0 -30 -4 -55 -10 -55 -6 0 -10 -39 -10 -96 0 -61 -4 -93 -10 -89
-6 4 -10 -47 -10 -144 0 -94 4 -151 10 -151 6 0 10 -37 10 -90 0 -53 4 -90 10
-90 6 0 10 -27 10 -61 0 -37 4 -58 10 -54 6 4 10 -12 10 -39 0 -25 5 -46 10
-46 6 0 10 -18 10 -40 0 -22 5 -40 10 -40 6 0 10 -16 10 -36 0 -21 4 -33 10
-29 6 4 10 -7 10 -24 0 -17 5 -31 10 -31 6 0 10 -13 10 -30 0 -16 5 -30 10
-30 6 0 10 -11 10 -25 0 -14 5 -25 10 -25 6 0 10 -11 10 -25 0 -14 5 -25 10
-25 6 0 10 -9 10 -20 0 -11 5 -20 10 -20 6 0 10 -9 10 -20 0 -11 5 -20 10 -20
6 0 10 -9 10 -20 0 -11 5 -20 10 -20 6 0 10 -9 10 -20 0 -11 5 -20 10 -20 6 0
10 -9 10 -20 0 -11 5 -20 10 -20 6 0 10 -7 10 -15 0 -8 5 -15 10 -15 6 0 10
-9 10 -21 0 -11 5 -17 10 -14 6 3 10 -3 10 -14 0 -12 5 -21 10 -21 6 0 10 -7
10 -15 0 -8 5 -15 10 -15 6 0 10 -7 10 -15 0 -8 5 -15 10 -15 6 0 10 -7 10
-15 0 -8 5 -15 11 -15 6 0 9 -9 6 -20 -3 -11 -1 -17 4 -14 11 6 39 -19 39 -35
0 -6 5 -11 11 -11 6 0 9 -9 6 -20 -3 -11 -1 -18 4 -15 8 6 79 -58 79 -70 0 -3
9 -16 20 -28 11 -12 18 -27 16 -34 -3 -8 1 -10 11 -6 12 5 15 2 10 -10 -4 -12
-2 -14 10 -10 12 5 15 2 10 -10 -4 -12 -2 -14 10 -10 12 5 15 2 10 -10 -4 -12
-2 -14 10 -10 12 5 15 2 10 -10 -4 -12 -2 -14 10 -10 12 5 15 2 10 -10 -4 -10
-2 -14 6 -11 7 2 22 -5 34 -16 12 -11 25 -20 28 -20 12 0 76 -71 70 -79 -3 -5
4 -7 15 -4 11 3 20 0 20 -6 0 -6 5 -11 11 -11 16 0 41 -28 35 -39 -3 -5 3 -7
14 -4 11 3 20 0 20 -6 0 -6 7 -11 15 -11 8 0 15 -4 15 -10 0 -5 7 -10 15 -10
8 0 15 -4 15 -10 0 -5 7 -10 15 -10 8 0 15 -4 15 -10 0 -5 9 -10 21 -10 11 0
17 -4 14 -10 -3 -5 3 -10 14 -10 12 0 21 -4 21 -10 0 -5 7 -10 15 -10 8 0 15
-4 15 -10 0 -5 9 -10 20 -10 11 0 20 -4 20 -10 0 -5 9 -10 20 -10 11 0 20 -4
20 -10 0 -5 9 -10 20 -10 11 0 20 -4 20 -10 0 -5 9 -10 20 -10 11 0 20 -4 20
-10 0 -5 9 -10 20 -10 11 0 20 -4 20 -10 0 -5 11 -10 25 -10 14 0 25 -4 25
-10 0 -5 11 -10 25 -10 14 0 25 -4 25 -10 0 -5 14 -10 30 -10 17 0 30 -4 30
-10 0 -5 14 -10 31 -10 17 0 28 -4 24 -10 -4 -6 8 -10 29 -10 20 0 36 -4 36
-10 0 -5 18 -10 40 -10 22 0 40 -4 40 -10 0 -5 21 -10 46 -10 27 0 43 -4 39
-10 -4 -6 17 -10 54 -10 34 0 61 -4 61 -10 0 -6 37 -10 90 -10 53 0 90 -4 90
-10 0 -6 57 -10 150 -10 93 0 150 4 150 10 0 6 37 10 90 10 53 0 90 4 90 10 0
6 27 10 61 10 37 0 58 4 54 10 -4 6 12 10 39 10 25 0 46 5 46 10 0 6 18 10 40
10 22 0 40 5 40 10 0 6 16 10 36 10 21 0 33 4 29 10 -4 6 8 10 30 10 22 0 34
4 30 10 -4 6 7 10 24 10 17 0 31 5 31 10 0 6 11 10 25 10 14 0 25 5 25 10 0 6
11 10 25 10 14 0 25 5 25 10 0 6 9 10 20 10 11 0 20 5 20 10 0 6 9 10 20 10
11 0 20 5 20 10 0 6 9 10 20 10 11 0 20 5 20 10 0 6 9 10 20 10 11 0 20 5 20
10 0 6 9 10 20 10 11 0 20 5 20 10 0 6 7 10 15 10 8 0 15 5 15 10 0 6 9 10 21
10 11 0 17 5 14 10 -3 6 3 10 14 10 12 0 21 5 21 10 0 6 7 10 15 10 8 0 15 5
15 10 0 6 7 10 15 10 8 0 15 5 15 10 0 6 7 10 15 10 8 0 15 5 15 11 0 6 9 9
20 6 11 -3 17 -1 14 4 -6 11 19 39 35 39 6 0 11 5 11 11 0 6 9 9 20 6 11 -3
18 -1 15 4 -6 8 58 79 70 79 3 0 16 9 28 20 12 11 27 18 34 16 8 -3 10 1 6 11
-5 12 -2 15 10 10 12 -4 14 -2 10 10 -5 12 -2 15 10 10 12 -4 14 -2 10 10 -5
12 -2 15 10 10 12 -4 14 -2 10 10 -5 12 -2 15 10 10 12 -4 14 -2 10 10 -5 12
-2 15 10 10 10 -4 14 -2 11 6 -2 7 5 22 16 34 11 12 20 25 20 28 0 12 71 76
79 70 5 -3 7 4 4 15 -3 11 0 20 6 20 6 0 11 5 11 11 0 16 28 41 39 35 5 -3 7
3 4 14 -3 11 0 20 6 20 6 0 11 7 11 15 0 8 5 15 10 15 6 0 10 7 10 15 0 8 5
15 10 15 6 0 10 7 10 15 0 8 5 15 10 15 6 0 10 9 10 21 0 11 5 17 10 14 6 -3
10 3 10 14 0 12 5 21 10 21 6 0 10 7 10 15 0 8 5 15 10 15 6 0 10 9 10 20 0
11 5 20 10 20 6 0 10 9 10 20 0 11 5 20 10 20 6 0 10 9 10 20 0 11 5 20 10 20
6 0 10 9 10 20 0 11 5 20 10 20 6 0 10 9 10 20 0 11 5 20 10 20 6 0 10 11 10
25 0 14 5 25 10 25 6 0 10 11 10 25 0 14 5 25 10 25 6 0 10 14 10 30 0 17 5
30 10 30 6 0 10 14 10 31 0 17 4 28 10 24 6 -4 10 8 10 29 0 20 5 36 10 36 6
0 10 18 10 40 0 22 5 40 10 40 6 0 10 21 10 46 0 27 4 43 10 39 6 -4 10 17 10
54 0 34 4 61 10 61 6 0 10 37 10 90 0 53 4 90 10 90 6 0 10 57 10 150 0 93 -4
150 -10 150 -6 0 -10 37 -10 90 0 53 -4 90 -10 90 -6 0 -10 27 -10 61 0 37 -4
58 -10 54 -6 -4 -10 12 -10 39 0 25 -4 46 -10 46 -5 0 -10 18 -10 40 0 22 -4
40 -10 40 -5 0 -10 16 -10 36 0 21 -4 33 -10 29 -6 -4 -10 7 -10 24 0 17 -4
31 -10 31 -5 0 -10 14 -10 30 0 17 -4 30 -10 30 -5 0 -10 11 -10 25 0 14 -4
25 -10 25 -5 0 -10 11 -10 25 0 14 -4 25 -10 25 -5 0 -10 9 -10 20 0 11 -4 20
-10 20 -5 0 -10 9 -10 20 0 11 -4 20 -10 20 -5 0 -10 9 -10 20 0 11 -4 20 -10
20 -5 0 -10 9 -10 20 0 11 -4 20 -10 20 -5 0 -10 9 -10 20 0 11 -4 20 -10 20
-5 0 -10 7 -10 15 0 8 -4 15 -10 15 -5 0 -10 9 -10 21 0 11 -4 17 -10 14 -5
-3 -10 3 -10 14 0 12 -4 21 -10 21 -5 0 -10 7 -10 15 0 8 -4 15 -10 15 -5 0
-10 7 -10 15 0 8 -4 15 -10 15 -5 0 -10 7 -10 15 0 8 -5 15 -11 15 -6 0 -9 9
-6 20 3 11 1 17 -4 14 -11 -6 -39 19 -39 35 0 6 -5 11 -11 11 -6 0 -9 9 -6 20
3 11 1 18 -4 15 -8 -6 -79 58 -79 70 0 3 -14 20 -30 38 -17 18 -28 37 -26 44
3 8 -1 10 -11 6 -12 -5 -15 -2 -10 10 4 12 2 14 -10 10 -12 -5 -15 -2 -10 10
4 12 2 14 -10 10 -12 -5 -15 -2 -11 9 4 9 1 15 -6 14 -22 -2 -161 118 -152
133 3 5 -3 7 -14 4 -11 -3 -20 0 -20 6 0 6 -5 11 -11 11 -16 0 -41 28 -35 39
3 5 -3 7 -14 4 -11 -3 -20 0 -20 6 0 6 -7 11 -15 11 -8 0 -15 5 -15 10 0 6 -7
10 -15 10 -8 0 -15 5 -15 10 0 6 -7 10 -15 10 -8 0 -15 5 -15 10 0 6 -9 10
-21 10 -11 0 -17 5 -14 10 3 6 -3 10 -14 10 -12 0 -21 5 -21 10 0 6 -7 10 -15
10 -8 0 -15 5 -15 10 0 6 -9 10 -20 10 -11 0 -20 5 -20 10 0 6 -9 10 -20 10
-11 0 -20 5 -20 10 0 6 -9 10 -20 10 -11 0 -20 5 -20 10 0 6 -9 10 -20 10 -11
0 -20 5 -20 10 0 6 -9 10 -20 10 -11 0 -20 5 -20 10 0 6 -11 10 -25 10 -14 0
-25 5 -25 10 0 6 -11 10 -25 10 -14 0 -25 5 -25 10 0 6 -13 10 -30 10 -16 0
-30 5 -30 10 0 6 -14 10 -31 10 -17 0 -28 4 -24 10 4 6 -8 10 -29 10 -20 0
-36 5 -36 10 0 6 -18 10 -40 10 -22 0 -40 5 -40 10 0 6 -21 10 -46 10 -27 0
-43 4 -39 10 4 6 -17 10 -54 10 -34 0 -61 4 -61 10 0 6 -37 10 -90 10 -53 0
-90 4 -90 10 0 6 -38 10 -95 10 -57 0 -95 -4 -95 -10z"/>
    <path
      d="M1600 3620 c0 -5 -9 -10 -20 -10 -11 0 -20 -4 -20 -10 0 -5 -7 -10
-15 -10 -8 0 -15 -7 -15 -15 0 -8 -4 -15 -10 -15 -5 0 -10 -9 -10 -20 0 -11
-4 -20 -10 -20 -6 0 -10 -33 -10 -80 0 -47 4 -80 10 -80 6 0 10 -6 10 -13 0
-7 9 -19 20 -27 11 -8 20 -20 20 -27 0 -7 5 -13 11 -13 6 0 9 -9 6 -20 -3 -11
-1 -17 4 -14 11 6 39 -19 39 -35 0 -6 5 -11 11 -11 6 0 9 -9 6 -20 -3 -11 -1
-17 4 -14 11 6 39 -19 39 -35 0 -6 5 -11 11 -11 6 0 9 -9 6 -20 -3 -11 -1 -17
4 -14 11 6 39 -19 39 -35 0 -6 5 -11 11 -11 6 0 9 -9 6 -20 -3 -11 -1 -17 4
-14 11 6 39 -19 39 -35 0 -6 5 -11 11 -11 6 0 9 -9 6 -20 -3 -11 -1 -17 4 -14
11 6 39 -19 39 -35 0 -6 5 -11 11 -11 6 0 9 -9 6 -20 -3 -11 -1 -17 4 -14 11
6 39 -19 39 -35 0 -6 5 -11 11 -11 6 0 9 -9 6 -20 -3 -11 -1 -17 4 -14 11 6
39 -19 39 -35 0 -6 5 -11 11 -11 6 0 9 -9 6 -20 -3 -11 -1 -17 4 -14 11 6 39
-19 39 -35 0 -6 5 -11 11 -11 6 0 9 -9 6 -20 -3 -11 -1 -17 4 -14 11 6 39 -19
39 -35 0 -6 5 -11 11 -11 6 0 9 -9 6 -20 -3 -11 -1 -17 4 -14 11 6 39 -19 39
-35 0 -6 5 -11 11 -11 6 0 9 -9 6 -20 -3 -11 -1 -17 4 -14 11 6 39 -19 39 -35
0 -6 5 -11 11 -11 6 0 9 -9 6 -20 -3 -11 -1 -17 4 -14 11 6 39 -19 39 -35 0
-6 5 -11 11 -11 6 0 9 -9 6 -19 -3 -15 -1 -18 11 -14 11 5 14 2 9 -9 -4 -12
-1 -14 14 -11 10 3 19 0 19 -6 0 -6 7 -11 15 -11 8 0 15 -4 15 -10 0 -5 9 -10
20 -10 11 0 20 -4 20 -10 0 -5 11 -10 25 -10 14 0 25 -4 25 -10 0 -6 42 -10
105 -10 63 0 105 4 105 10 0 6 11 10 25 10 14 0 25 5 25 10 0 6 9 10 20 10 11
0 20 5 20 11 0 6 9 9 20 6 11 -3 18 -1 15 4 -8 11 63 82 74 74 5 -3 7 4 4 15
-3 11 0 20 6 20 6 0 11 9 11 20 0 11 5 20 10 20 6 0 10 11 10 25 0 14 5 25 10
25 6 0 10 42 10 105 0 63 -4 105 -10 105 -5 0 -10 11 -10 25 0 14 -4 25 -10
25 -5 0 -10 9 -10 20 0 11 -4 20 -10 20 -5 0 -10 7 -10 15 0 8 -5 15 -11 15
-6 0 -9 9 -6 19 3 15 1 18 -11 14 -11 -5 -14 -2 -9 9 4 12 1 14 -14 11 -10 -3
-19 0 -19 6 0 6 -5 11 -11 11 -16 0 -41 28 -35 39 3 5 -3 7 -14 4 -11 -3 -20
0 -20 6 0 6 -5 11 -11 11 -16 0 -41 28 -35 39 3 5 -3 7 -14 4 -11 -3 -20 0
-20 6 0 6 -5 11 -11 11 -16 0 -41 28 -35 39 3 5 -3 7 -14 4 -11 -3 -20 0 -20
6 0 6 -5 11 -11 11 -16 0 -41 28 -35 39 3 5 -3 7 -14 4 -11 -3 -20 0 -20 6 0
6 -5 11 -11 11 -16 0 -41 28 -35 39 3 5 -3 7 -14 4 -11 -3 -20 0 -20 6 0 6 -5
11 -11 11 -16 0 -41 28 -35 39 3 5 -3 7 -14 4 -11 -3 -20 0 -20 6 0 6 -5 11
-11 11 -16 0 -41 28 -35 39 3 5 -3 7 -14 4 -11 -3 -20 0 -20 6 0 6 -5 11 -11
11 -16 0 -41 28 -35 39 3 5 -3 7 -14 4 -11 -3 -20 0 -20 6 0 6 -5 11 -11 11
-16 0 -41 28 -35 39 3 5 -3 7 -14 4 -11 -3 -20 0 -20 6 0 6 -5 11 -11 11 -16
0 -41 28 -35 39 3 5 -3 7 -14 4 -11 -3 -20 0 -20 6 0 6 -5 11 -11 11 -16 0
-41 28 -35 39 3 5 -3 7 -14 4 -11 -3 -20 0 -20 6 0 6 -5 11 -11 11 -16 0 -41
28 -35 39 3 5 -3 7 -14 4 -11 -3 -20 0 -20 6 0 6 -6 11 -13 11 -7 0 -19 9 -27
20 -8 11 -20 20 -27 20 -7 0 -13 5 -13 10 0 6 -33 10 -80 10 -47 0 -80 -4 -80
-10z"/>
  </g>
</svg>
