<svg xmlns="http://www.w3.org/2000/svg" width="14.000000pt" height="14.000000pt" viewBox="0 0 512.000000 512.000000">
  <g transform="translate(0.000000,512.000000) scale(0.100000,-0.100000)" fill="#eeeeee" stroke="none">
    <path
      d="M2052 5108 c8 -22 -37 -47 -108 -60 -38 -7 -78 -20 -88 -30 -12 -11
-35 -18 -57 -18 -46 0 -69 -8 -69 -25 0 -13 -30 -25 -66 -25 -11 0 -30 -9 -42
-20 -12 -11 -31 -20 -44 -20 -13 0 -36 -13 -51 -29 -17 -19 -40 -31 -60 -33
-19 -2 -31 -8 -29 -15 1 -7 -7 -13 -18 -13 -11 0 -20 -4 -20 -10 0 -5 -5 -10
-10 -10 -6 0 -20 -9 -32 -20 -12 -11 -30 -20 -39 -20 -10 0 -26 -11 -37 -25
-11 -14 -26 -25 -33 -25 -19 -1 -50 -25 -42 -33 3 -4 -1 -7 -9 -7 -8 0 -31
-15 -50 -32 -59 -55 -88 -78 -97 -78 -5 0 -12 -9 -16 -19 -5 -17 -38 -35 -57
-32 -5 1 -8 -8 -8 -19 0 -11 -4 -20 -10 -20 -14 0 -120 -105 -120 -118 0 -7
-6 -12 -13 -12 -7 0 -18 -9 -25 -20 -7 -12 -17 -18 -23 -15 -5 4 -9 3 -8 -2 4
-21 -2 -33 -16 -33 -8 0 -15 -9 -15 -20 0 -11 -7 -20 -15 -20 -8 0 -15 -9 -15
-20 0 -11 -7 -23 -15 -26 -8 -3 -17 -14 -20 -25 -4 -10 -13 -19 -21 -19 -8 0
-14 -4 -14 -8 0 -8 -8 -19 -49 -68 -5 -6 -12 -21 -16 -33 -4 -14 -12 -20 -21
-17 -10 4 -14 -2 -14 -20 0 -13 -7 -27 -15 -30 -8 -4 -15 -14 -15 -23 0 -18
-23 -52 -52 -79 -10 -9 -18 -24 -18 -33 0 -9 -7 -19 -15 -23 -8 -3 -15 -14
-15 -25 0 -24 -10 -51 -19 -51 -3 0 -5 217 -3 482 3 505 -1 649 -21 645 -7 -1
-13 11 -15 27 -2 17 -20 45 -48 72 l-43 44 -80 0 c-66 0 -82 -3 -93 -18 -7
-11 -24 -25 -38 -32 -13 -7 -30 -19 -37 -26 -10 -10 -13 -224 -13 -1048 0
-639 4 -1036 9 -1036 6 0 25 -13 43 -30 18 -16 43 -30 55 -30 13 0 23 -4 23
-8 0 -29 78 -32 733 -32 648 0 667 1 702 20 20 11 42 20 50 20 7 0 37 22 64
49 40 37 51 55 51 79 0 38 9 64 21 56 5 -3 9 20 9 50 0 40 -4 55 -12 54 -9 -2
-14 12 -16 38 -2 33 -10 47 -38 69 -18 15 -34 33 -34 40 0 17 -23 25 -76 25
-24 0 -44 5 -44 10 0 7 -158 10 -455 10 -297 0 -455 -3 -455 -10 0 -5 -4 -10
-10 -10 -16 0 -12 30 5 36 8 4 15 17 15 29 0 13 7 30 15 39 8 8 15 21 15 29 0
26 12 47 25 47 8 0 15 14 17 33 2 19 8 31 16 29 7 -1 12 8 12 23 0 14 7 28 15
31 8 4 15 12 15 19 0 8 8 21 17 31 10 10 19 21 19 26 1 4 2 13 3 18 0 6 8 10
16 10 10 0 15 10 15 30 0 20 5 30 15 30 8 0 15 9 15 20 0 11 7 23 15 26 8 3
17 15 21 26 3 11 12 17 20 14 9 -4 14 2 14 17 1 12 14 33 30 47 17 13 30 30
30 36 0 7 9 16 20 19 11 4 18 10 15 15 -3 5 3 15 15 22 11 7 20 19 20 26 0 7
7 15 15 18 8 3 17 14 20 25 4 10 11 19 16 19 13 0 79 64 79 76 0 5 14 15 31
23 18 8 34 22 36 32 3 11 11 19 17 19 6 0 19 8 28 18 35 37 66 62 92 71 14 6
26 15 26 21 0 5 7 10 15 10 8 0 15 5 15 10 0 6 6 10 13 10 7 0 18 9 25 20 7
11 20 20 30 20 22 0 74 34 65 43 -3 4 8 7 25 7 21 0 32 6 37 19 4 13 19 22 48
27 23 4 45 7 50 6 4 -1 7 5 7 13 0 18 31 35 64 35 14 0 28 5 31 10 10 16 74
40 105 40 15 0 35 9 44 19 13 15 35 20 93 23 48 2 78 8 81 16 2 7 12 12 23 12
10 0 19 5 19 10 0 6 123 10 350 10 227 0 350 -4 350 -10 0 -5 6 -10 14 -10 8
0 16 -5 18 -12 3 -8 33 -14 84 -16 61 -4 82 -9 95 -23 11 -13 30 -19 58 -19
22 0 41 -4 41 -10 0 -5 6 -10 14 -10 7 0 19 -6 25 -14 6 -7 30 -16 53 -19 25
-3 48 -14 57 -25 9 -11 30 -23 47 -27 18 -3 40 -15 50 -26 9 -10 25 -19 35
-19 10 0 29 -11 43 -25 14 -14 34 -25 45 -25 12 0 26 -9 33 -20 7 -11 18 -20
25 -20 7 0 13 -4 13 -10 0 -5 7 -10 15 -10 8 0 15 -4 15 -9 0 -5 8 -12 18 -15
16 -5 48 -30 97 -74 11 -10 28 -21 38 -25 9 -3 17 -13 17 -22 0 -8 4 -15 10
-15 5 0 44 -34 87 -75 42 -41 80 -75 85 -75 7 0 12 -15 9 -32 0 -4 8 -10 19
-13 11 -4 20 -13 20 -21 0 -8 7 -17 15 -20 8 -4 15 -10 15 -15 0 -5 15 -24 33
-43 45 -49 67 -78 67 -92 0 -7 7 -14 15 -18 8 -3 15 -17 15 -31 0 -16 6 -25
15 -25 8 0 15 -4 15 -8 0 -9 25 -44 53 -73 9 -11 17 -28 17 -39 0 -11 7 -23
15 -26 9 -4 15 -19 15 -36 0 -19 4 -27 11 -22 15 9 29 -14 29 -47 0 -15 7 -29
15 -33 8 -3 15 -16 15 -30 0 -13 7 -26 15 -30 9 -3 15 -18 15 -36 0 -17 4 -29
9 -25 6 3 14 -10 20 -30 5 -19 16 -42 25 -51 9 -8 16 -30 16 -49 0 -20 6 -35
15 -39 10 -4 15 -20 15 -51 0 -31 5 -47 15 -51 11 -5 15 -22 15 -66 0 -35 4
-57 9 -53 15 9 31 -29 31 -73 0 -22 7 -53 15 -68 8 -16 15 -47 15 -69 0 -26 3
-35 9 -27 15 24 21 -13 22 -126 0 -66 4 -99 9 -87 7 19 8 19 14 -5 4 -14 5
-185 4 -380 -2 -277 -6 -354 -15 -353 -10 2 -13 -21 -13 -90 0 -96 -7 -140
-20 -132 -4 3 -10 -18 -14 -45 -4 -28 -11 -50 -16 -50 -6 0 -10 -22 -10 -50 0
-37 -5 -55 -20 -70 -15 -15 -20 -33 -20 -74 0 -39 -4 -55 -15 -60 -10 -4 -15
-20 -15 -51 0 -31 -5 -47 -15 -51 -9 -4 -15 -19 -15 -40 0 -20 -8 -40 -19 -51
-11 -10 -21 -31 -23 -48 -2 -17 -8 -29 -15 -28 -7 2 -13 -6 -13 -16 0 -11 -7
-26 -15 -35 -8 -8 -15 -26 -15 -41 0 -14 -7 -28 -15 -31 -8 -4 -15 -17 -15
-30 0 -13 -9 -29 -20 -36 -12 -8 -20 -24 -20 -40 0 -16 -5 -28 -11 -28 -5 0
-15 -13 -20 -30 -6 -16 -15 -30 -20 -30 -5 0 -9 -6 -9 -13 0 -8 -9 -24 -20
-37 -11 -13 -20 -27 -20 -32 0 -4 -7 -8 -15 -8 -8 0 -15 -9 -15 -20 0 -11 -7
-23 -15 -26 -8 -4 -15 -14 -15 -23 0 -9 -8 -28 -17 -41 -25 -36 -25 -176 0
-195 9 -6 17 -20 17 -30 0 -10 16 -33 35 -52 19 -19 35 -40 35 -48 0 -12 19
-15 95 -15 79 0 95 3 95 15 0 9 7 18 15 21 8 4 15 12 15 20 0 7 8 18 19 23 10
6 22 22 25 36 4 14 10 23 15 20 5 -2 12 6 15 20 4 14 11 25 16 25 6 0 10 7 10
15 0 8 9 23 20 32 11 10 20 25 20 35 0 10 7 18 15 18 8 0 15 9 15 19 0 11 7
26 15 35 8 8 15 24 15 36 0 11 6 23 14 26 8 3 20 20 26 37 8 25 13 29 20 18 6
-11 9 -3 12 25 2 25 8 38 16 37 7 -2 12 7 12 21 0 14 7 31 15 40 8 8 15 27 15
43 0 35 14 58 29 49 7 -5 11 6 11 34 0 27 5 43 15 46 9 4 15 19 15 39 0 18 9
42 20 55 11 13 20 34 20 47 0 12 5 23 10 23 6 0 10 10 10 23 0 40 12 68 26 63
11 -4 14 8 14 55 0 44 4 61 15 65 11 5 15 22 15 63 0 31 6 65 14 76 7 11 15
54 18 96 5 82 15 111 29 88 5 -8 9 264 9 623 0 533 -2 637 -14 632 -14 -5 -26
53 -26 131 0 29 -5 45 -15 49 -11 4 -15 22 -15 71 0 49 -4 67 -15 71 -11 5
-15 22 -15 64 0 42 -4 59 -15 64 -8 3 -18 23 -21 46 -4 22 -10 40 -15 40 -4 0
-11 15 -15 34 -3 19 -12 37 -20 40 -9 3 -14 20 -14 46 0 27 -4 39 -12 38 -8
-2 -14 12 -16 37 -2 25 -11 44 -23 53 -11 8 -19 25 -19 41 0 16 -7 31 -15 35
-9 3 -15 19 -15 41 0 21 -4 34 -10 30 -5 -3 -12 5 -16 19 -3 13 -12 27 -20 30
-8 3 -14 12 -14 19 0 8 -9 24 -20 37 -11 13 -20 31 -20 40 0 10 -7 20 -15 24
-9 3 -15 18 -15 36 0 17 -4 29 -9 25 -12 -7 -30 25 -24 42 2 6 -5 17 -16 23
-12 6 -21 17 -21 24 0 8 -7 16 -15 20 -8 3 -15 13 -15 21 0 9 -5 13 -10 10 -6
-4 -13 7 -16 23 -4 18 -14 32 -25 35 -11 3 -19 14 -19 26 0 12 -6 21 -15 21
-8 0 -15 9 -15 20 0 11 -5 20 -10 20 -6 0 -14 8 -17 17 -4 10 -22 32 -40 51
-18 18 -33 35 -33 37 0 3 -24 29 -52 59 -29 30 -67 70 -85 90 -17 20 -36 36
-41 36 -6 0 -14 9 -17 20 -3 11 -13 20 -21 20 -8 0 -14 6 -14 13 0 6 -16 22
-35 35 -19 12 -35 27 -35 32 0 6 -5 10 -11 10 -7 0 -19 8 -28 18 -9 11 -26 24
-39 31 -12 7 -20 16 -17 21 3 5 -4 11 -15 15 -11 4 -35 20 -52 36 -18 16 -38
29 -45 29 -7 0 -13 4 -13 9 0 5 -8 12 -17 15 -24 8 -51 25 -94 59 -20 15 -41
27 -46 27 -6 0 -13 7 -17 15 -3 9 -18 15 -35 15 -20 0 -39 10 -58 30 -19 20
-38 30 -58 30 -19 0 -35 7 -43 20 -7 11 -22 20 -35 20 -37 0 -67 12 -67 25 0
17 -23 25 -69 25 -23 0 -45 7 -57 19 -12 10 -41 22 -65 26 -84 13 -109 24
-109 51 l0 24 -526 0 c-414 0 -525 -3 -522 -12z"/>
  </g>
</svg>
