<svg xmlns="http://www.w3.org/2000/svg" width="14.000000pt" height="14.000000pt" viewBox="0 0 512.000000 512.000000">
  <g transform="translate(0.000000,512.000000) scale(0.100000,-0.100000)" fill="#eeeeee" stroke="none">
    <path
      d="M2497 4933 c-15 -2 -25 -9 -22 -14 4 -5 -3 -9 -14 -9 -28 0 -121 -79
-121 -102 0 -6 -3 -8 -7 -5 -9 9 -33 -41 -33 -69 0 -13 -4 -24 -10 -24 -7 0
-10 -302 -10 -885 l0 -885 -869 0 c-569 0 -872 -3 -876 -10 -3 -5 -19 -10 -36
-10 -16 0 -29 -4 -29 -10 0 -5 -7 -10 -15 -10 -15 0 -51 -27 -87 -65 -54 -57
-67 -81 -74 -133 -9 -71 1 -215 15 -220 6 -2 11 -10 11 -17 0 -8 16 -29 35
-48 19 -19 32 -37 28 -40 -3 -4 1 -7 10 -7 9 0 17 -4 17 -10 0 -5 7 -10 15
-10 8 0 15 -4 15 -10 0 -5 11 -10 24 -10 13 0 26 -6 28 -12 4 -10 192 -13 896
-13 l892 0 0 -892 c0 -589 3 -893 10 -893 6 0 10 -14 10 -31 0 -17 4 -28 10
-24 6 3 10 0 10 -8 0 -7 11 -24 25 -37 13 -12 22 -27 19 -31 -3 -5 1 -9 8 -9
8 0 20 -9 28 -20 8 -11 22 -20 32 -20 10 0 18 -4 18 -10 0 -5 9 -10 19 -10 11
0 23 -4 26 -10 3 -6 48 -10 100 -10 52 0 97 4 100 10 3 6 15 10 26 10 10 0 19
5 19 10 0 6 8 10 18 10 10 0 24 9 32 20 8 11 20 20 28 20 7 0 11 4 7 9 -3 5 6
18 20 29 14 11 25 27 25 36 0 9 5 16 10 16 6 0 10 11 10 25 0 14 5 25 10 25 7
0 10 304 10 893 l0 892 890 0 c698 0 892 3 902 13 6 6 20 12 30 12 10 0 18 5
18 10 0 6 7 10 15 10 8 0 15 5 15 10 0 6 8 10 17 10 9 0 13 3 10 7 -4 3 9 21
28 40 19 19 35 40 35 48 0 7 5 15 11 17 14 5 24 149 15 220 -7 52 -20 76 -74
133 -36 38 -72 65 -87 65 -8 0 -15 5 -15 10 0 6 -13 10 -29 10 -17 0 -33 5
-36 10 -4 7 -307 10 -876 10 l-869 0 0 885 c0 583 -3 885 -10 885 -5 0 -10 11
-10 24 0 28 -24 78 -33 69 -4 -3 -7 -1 -7 5 0 23 -93 102 -121 102 -11 0 -18
4 -15 9 11 17 -133 26 -217 14z"/>
    <path d="M567 23 c-4 -4 -26 -10 -50 -14 -23 -3 912 -6 2078 -6 1500 0 2107 3
2075 10 -51 12 -4092 22 -4103 10z"/>
  </g>
</svg>
