<svg xmlns="http://www.w3.org/2000/svg" width="14.000000pt" height="14.000000pt" viewBox="0 0 512.000000 512.000000">
  <g transform="translate(0.000000,512.000000) scale(0.100000,-0.100000)" fill="#eeeeee" stroke="none">
    <path
      d="M603 2823 c-18 -2 -33 -8 -33 -14 0 -5 -9 -9 -20 -9 -11 0 -20 -4
-20 -10 0 -5 -7 -10 -15 -10 -8 0 -15 -7 -15 -15 0 -8 -6 -15 -14 -15 -8 0
-18 -9 -21 -20 -3 -11 -11 -20 -16 -20 -5 0 -9 -7 -9 -15 0 -8 -4 -15 -10 -15
-5 0 -10 -9 -10 -19 0 -11 -6 -21 -12 -23 -18 -6 -18 -270 0 -275 6 -3 12 -13
12 -24 0 -10 5 -19 10 -19 6 0 10 -7 10 -15 0 -8 4 -15 9 -15 5 0 13 -9 16
-20 3 -11 13 -20 21 -20 8 0 14 -7 14 -15 0 -8 7 -15 15 -15 8 0 15 -4 15 -10
0 -5 9 -10 19 -10 11 0 21 -6 24 -12 6 -19 3968 -19 3975 0 2 6 12 12 23 12
10 0 19 5 19 10 0 6 7 10 15 10 8 0 15 7 15 15 0 8 6 15 14 15 8 0 18 9 21 20
3 11 11 20 16 20 5 0 9 7 9 15 0 8 5 15 10 15 6 0 10 9 10 19 0 11 6 21 13 24
9 3 12 39 12 137 0 98 -3 134 -12 138 -7 2 -13 12 -13 23 0 10 -4 19 -10 19
-5 0 -10 7 -10 15 0 8 -4 15 -9 15 -5 0 -13 9 -16 20 -3 11 -13 20 -21 20 -8
0 -14 7 -14 15 0 8 -7 15 -16 15 -8 0 -12 5 -9 10 3 6 -5 10 -19 10 -13 0 -26
6 -28 13 -4 9 -405 12 -1959 13 -1075 1 -1969 -1 -1986 -3z"/>
  </g>
</svg>
